G04 PROTEUS GERBER X2 FILE*
%TF.GenerationSoftware,Labcenter,Proteus,8.8-SP1-Build27031*%
%TF.CreationDate,2021-08-02T14:58:59+00:00*%
%TF.FileFunction,Legend,Top*%
%TF.FilePolarity,Positive*%
%TF.Part,Single*%
%TF.SameCoordinates,{c3ce3005-f07b-4d42-96ea-8d11783d6a5d}*%
%FSLAX45Y45*%
%MOMM*%
G01*
%TA.AperFunction,Profile*%
%ADD21C,0.203200*%
%TA.AperFunction,Material*%
%ADD22C,0.203200*%
%TD.AperFunction*%
D21*
X-12754000Y-52000D02*
X-754000Y-52000D01*
X-754000Y+11948000D01*
X-12754000Y+11948000D01*
X-12754000Y-52000D01*
D22*
X-4512000Y+2177000D02*
X-4563752Y+2171920D01*
X-4611695Y+2157315D01*
X-4654875Y+2134138D01*
X-4692340Y+2103340D01*
X-4723138Y+2065875D01*
X-4746315Y+2022695D01*
X-4760920Y+1974752D01*
X-4766000Y+1923000D01*
X-4512000Y+2177000D02*
X-4459518Y+2171920D01*
X-4411234Y+2157315D01*
X-4368009Y+2134138D01*
X-4330708Y+2103340D01*
X-4300193Y+2065875D01*
X-4277328Y+2022695D01*
X-4262976Y+1974752D01*
X-4258000Y+1923000D01*
X-4766000Y+1923000D02*
X-5147000Y+1923000D01*
X-5147000Y+5733000D02*
X-3877000Y+5733000D01*
X-3877000Y+1923000D02*
X-4258000Y+1923000D01*
X-5147000Y+1923000D02*
X-5147000Y+5733000D01*
X-3877000Y+1923000D02*
X-3877000Y+5733000D01*
X-5274000Y+1790920D02*
X-5274000Y+1851880D01*
X-5242250Y+1882360D01*
X-5210500Y+1882360D01*
X-5178750Y+1851880D01*
X-5178750Y+1790920D01*
X-5274000Y+1821400D02*
X-5178750Y+1821400D01*
X-5147000Y+1790920D02*
X-5147000Y+1882360D01*
X-5067625Y+1882360D01*
X-5051750Y+1867120D01*
X-5051750Y+1851880D01*
X-5067625Y+1836640D01*
X-5147000Y+1836640D01*
X-5067625Y+1836640D02*
X-5051750Y+1821400D01*
X-5051750Y+1790920D01*
X-5020000Y+1790920D02*
X-5020000Y+1882360D01*
X-4956500Y+1882360D01*
X-4924750Y+1851880D01*
X-4924750Y+1821400D01*
X-4956500Y+1790920D01*
X-5020000Y+1790920D01*
X-4893000Y+1882360D02*
X-4893000Y+1806160D01*
X-4877125Y+1790920D01*
X-4813625Y+1790920D01*
X-4797750Y+1806160D01*
X-4797750Y+1882360D01*
X-4750125Y+1882360D02*
X-4686625Y+1882360D01*
X-4718375Y+1882360D02*
X-4718375Y+1790920D01*
X-4750125Y+1790920D02*
X-4686625Y+1790920D01*
X-4639000Y+1790920D02*
X-4639000Y+1882360D01*
X-4543750Y+1790920D01*
X-4543750Y+1882360D01*
X-4512000Y+1851880D02*
X-4480250Y+1882360D01*
X-4448500Y+1882360D01*
X-4416750Y+1851880D01*
X-4416750Y+1821400D01*
X-4448500Y+1790920D01*
X-4480250Y+1790920D01*
X-4512000Y+1821400D01*
X-4512000Y+1851880D01*
X-4258000Y+1790920D02*
X-4258000Y+1882360D01*
X-4162750Y+1790920D01*
X-4162750Y+1882360D01*
X-4131000Y+1790920D02*
X-4131000Y+1851880D01*
X-4099250Y+1882360D01*
X-4067500Y+1882360D01*
X-4035750Y+1851880D01*
X-4035750Y+1790920D01*
X-4131000Y+1821400D02*
X-4035750Y+1821400D01*
X-4004000Y+1790920D02*
X-4004000Y+1882360D01*
X-3908750Y+1790920D01*
X-3908750Y+1882360D01*
X-3877000Y+1851880D02*
X-3845250Y+1882360D01*
X-3813500Y+1882360D01*
X-3781750Y+1851880D01*
X-3781750Y+1821400D01*
X-3813500Y+1790920D01*
X-3845250Y+1790920D01*
X-3877000Y+1821400D01*
X-3877000Y+1851880D01*
X-1877000Y+8873000D02*
X-988000Y+8873000D01*
X-988000Y+11413000D01*
X-1877000Y+11413000D01*
X-1877000Y+8873000D01*
X-2009080Y+10016000D02*
X-1932880Y+10016000D01*
X-1917640Y+10031875D01*
X-1917640Y+10095375D01*
X-1932880Y+10111250D01*
X-2009080Y+10111250D01*
X-1993840Y+10158875D02*
X-2009080Y+10174750D01*
X-2009080Y+10222375D01*
X-1993840Y+10238250D01*
X-1978600Y+10238250D01*
X-1963360Y+10222375D01*
X-1963360Y+10174750D01*
X-1948120Y+10158875D01*
X-1917640Y+10158875D01*
X-1917640Y+10238250D01*
X-6627000Y+10373000D02*
X-5103000Y+10373000D01*
X-5103000Y+11516000D01*
X-6627000Y+11516000D01*
X-6627000Y+10373000D01*
X-5992000Y+11571880D02*
X-5976125Y+11556640D01*
X-5912625Y+11556640D01*
X-5896750Y+11571880D01*
X-5896750Y+11587120D01*
X-5912625Y+11602360D01*
X-5976125Y+11602360D01*
X-5992000Y+11617600D01*
X-5992000Y+11632840D01*
X-5976125Y+11648080D01*
X-5912625Y+11648080D01*
X-5896750Y+11632840D01*
X-5849125Y+11632840D02*
X-5833250Y+11648080D01*
X-5785625Y+11648080D01*
X-5769750Y+11632840D01*
X-5769750Y+11617600D01*
X-5785625Y+11602360D01*
X-5833250Y+11602360D01*
X-5849125Y+11587120D01*
X-5849125Y+11556640D01*
X-5769750Y+11556640D01*
X-4639000Y+10373000D02*
X-3623000Y+10373000D01*
X-3623000Y+11643000D01*
X-4639000Y+11643000D01*
X-4639000Y+10373000D01*
X-4194500Y+10240920D02*
X-4194500Y+10332360D01*
X-4115125Y+10332360D01*
X-4099250Y+10317120D01*
X-4099250Y+10301880D01*
X-4115125Y+10286640D01*
X-4194500Y+10286640D01*
X-2627000Y+10361000D02*
X-2373000Y+10361000D01*
X-2373000Y+11377000D01*
X-2627000Y+11377000D01*
X-2627000Y+10361000D01*
X-2271400Y+10742000D02*
X-2256160Y+10742000D01*
X-2240920Y+10757875D01*
X-2240920Y+10821375D01*
X-2256160Y+10837250D01*
X-2332360Y+10837250D01*
X-2271400Y+10964250D02*
X-2271400Y+10869000D01*
X-2332360Y+10932500D01*
X-2240920Y+10932500D01*
X-3190500Y+10305500D02*
X-2809500Y+10305500D01*
X-2809500Y+11194500D01*
X-3190500Y+11194500D01*
X-3190500Y+10305500D01*
X-2974600Y+10432500D02*
X-2974902Y+10439822D01*
X-2977357Y+10454467D01*
X-2982489Y+10469112D01*
X-2990864Y+10483757D01*
X-3003678Y+10498261D01*
X-3018323Y+10509065D01*
X-3032968Y+10515993D01*
X-3047613Y+10519969D01*
X-3062258Y+10521391D01*
X-3063500Y+10521400D01*
X-3152400Y+10432500D02*
X-3152098Y+10439822D01*
X-3149643Y+10454467D01*
X-3144511Y+10469112D01*
X-3136136Y+10483757D01*
X-3123322Y+10498261D01*
X-3108677Y+10509065D01*
X-3094032Y+10515993D01*
X-3079387Y+10519969D01*
X-3064742Y+10521391D01*
X-3063500Y+10521400D01*
X-3152400Y+10432500D02*
X-3152098Y+10425178D01*
X-3149643Y+10410533D01*
X-3144511Y+10395888D01*
X-3136136Y+10381243D01*
X-3123322Y+10366739D01*
X-3108677Y+10355935D01*
X-3094032Y+10349007D01*
X-3079387Y+10345031D01*
X-3064742Y+10343609D01*
X-3063500Y+10343600D01*
X-2974600Y+10432500D02*
X-2974902Y+10425178D01*
X-2977357Y+10410533D01*
X-2982489Y+10395888D01*
X-2990864Y+10381243D01*
X-3003678Y+10366739D01*
X-3018323Y+10355935D01*
X-3032968Y+10349007D01*
X-3047613Y+10345031D01*
X-3062258Y+10343609D01*
X-3063500Y+10343600D01*
X-3000000Y+10369000D02*
X-3127000Y+10496000D01*
X-3231140Y+10559500D02*
X-3322580Y+10559500D01*
X-3322580Y+10638875D01*
X-3307340Y+10654750D01*
X-3292100Y+10654750D01*
X-3276860Y+10638875D01*
X-3276860Y+10559500D01*
X-3276860Y+10638875D02*
X-3261620Y+10654750D01*
X-3231140Y+10654750D01*
X-3322580Y+10686500D02*
X-3276860Y+10686500D01*
X-3231140Y+10734125D01*
X-3276860Y+10781750D01*
X-3322580Y+10781750D01*
X-3292100Y+10845250D02*
X-3322580Y+10877000D01*
X-3231140Y+10877000D01*
X-2286000Y+5173000D02*
X-2032000Y+5173000D01*
X-2032000Y+6189000D01*
X-2286000Y+6189000D01*
X-2286000Y+5173000D01*
X-2357120Y+5554000D02*
X-2341880Y+5554000D01*
X-2326640Y+5569875D01*
X-2326640Y+5633375D01*
X-2341880Y+5649250D01*
X-2418080Y+5649250D01*
X-2387600Y+5712750D02*
X-2418080Y+5744500D01*
X-2326640Y+5744500D01*
X-2286000Y+6365000D02*
X-2032000Y+6365000D01*
X-2032000Y+7381000D01*
X-2286000Y+7381000D01*
X-2286000Y+6365000D01*
X-2357120Y+6746000D02*
X-2341880Y+6746000D01*
X-2326640Y+6761875D01*
X-2326640Y+6825375D01*
X-2341880Y+6841250D01*
X-2418080Y+6841250D01*
X-2402840Y+6888875D02*
X-2418080Y+6904750D01*
X-2418080Y+6952375D01*
X-2402840Y+6968250D01*
X-2387600Y+6968250D01*
X-2372360Y+6952375D01*
X-2372360Y+6904750D01*
X-2357120Y+6888875D01*
X-2326640Y+6888875D01*
X-2326640Y+6968250D01*
X-2286000Y+7873000D02*
X-2032000Y+7873000D01*
X-2032000Y+8889000D01*
X-2286000Y+8889000D01*
X-2286000Y+7873000D01*
X-2357120Y+8254000D02*
X-2341880Y+8254000D01*
X-2326640Y+8269875D01*
X-2326640Y+8333375D01*
X-2341880Y+8349250D01*
X-2418080Y+8349250D01*
X-2402840Y+8396875D02*
X-2418080Y+8412750D01*
X-2418080Y+8460375D01*
X-2402840Y+8476250D01*
X-2387600Y+8476250D01*
X-2372360Y+8460375D01*
X-2357120Y+8476250D01*
X-2341880Y+8476250D01*
X-2326640Y+8460375D01*
X-2326640Y+8412750D01*
X-2341880Y+8396875D01*
X-2372360Y+8428625D02*
X-2372360Y+8460375D01*
X-2409000Y+2677000D02*
X-2409000Y+2804000D01*
X-2472500Y+2804000D02*
X-2345500Y+2804000D01*
X-2345500Y+3312000D01*
X-2472500Y+3312000D01*
X-2472500Y+2804000D01*
X-2409000Y+3312000D02*
X-2409000Y+3439000D01*
X-2513140Y+2867500D02*
X-2604580Y+2867500D01*
X-2604580Y+2946875D01*
X-2589340Y+2962750D01*
X-2574100Y+2962750D01*
X-2558860Y+2946875D01*
X-2558860Y+2867500D01*
X-2558860Y+2946875D02*
X-2543620Y+2962750D01*
X-2513140Y+2962750D01*
X-2574100Y+3026250D02*
X-2604580Y+3058000D01*
X-2513140Y+3058000D01*
X-2528380Y+3121500D02*
X-2589340Y+3121500D01*
X-2604580Y+3137375D01*
X-2604580Y+3200875D01*
X-2589340Y+3216750D01*
X-2528380Y+3216750D01*
X-2513140Y+3200875D01*
X-2513140Y+3137375D01*
X-2528380Y+3121500D01*
X-2513140Y+3121500D02*
X-2604580Y+3216750D01*
X-1909000Y+2677000D02*
X-1909000Y+2804000D01*
X-1972500Y+2804000D02*
X-1845500Y+2804000D01*
X-1845500Y+3312000D01*
X-1972500Y+3312000D01*
X-1972500Y+2804000D01*
X-1909000Y+3312000D02*
X-1909000Y+3439000D01*
X-2013140Y+2867500D02*
X-2104580Y+2867500D01*
X-2104580Y+2946875D01*
X-2089340Y+2962750D01*
X-2074100Y+2962750D01*
X-2058860Y+2946875D01*
X-2058860Y+2867500D01*
X-2058860Y+2946875D02*
X-2043620Y+2962750D01*
X-2013140Y+2962750D01*
X-2074100Y+3026250D02*
X-2104580Y+3058000D01*
X-2013140Y+3058000D01*
X-2074100Y+3153250D02*
X-2104580Y+3185000D01*
X-2013140Y+3185000D01*
X-3377000Y+2673000D02*
X-3123000Y+2673000D01*
X-3123000Y+3689000D01*
X-3377000Y+3689000D01*
X-3377000Y+2673000D01*
X-3021400Y+3054000D02*
X-3006160Y+3054000D01*
X-2990920Y+3069875D01*
X-2990920Y+3133375D01*
X-3006160Y+3149250D01*
X-3082360Y+3149250D01*
X-3051880Y+3276250D02*
X-3036640Y+3260375D01*
X-3036640Y+3212750D01*
X-3051880Y+3196875D01*
X-3067120Y+3196875D01*
X-3082360Y+3212750D01*
X-3082360Y+3260375D01*
X-3067120Y+3276250D01*
X-3006160Y+3276250D01*
X-2990920Y+3260375D01*
X-2990920Y+3212750D01*
X-10639000Y+3996000D02*
X-10639000Y+4123000D01*
X-9623000Y+4123000D01*
X-9623000Y+3615000D01*
X-10639000Y+3615000D01*
X-10639000Y+3742000D01*
X-10512000Y+3869000D02*
X-10514436Y+3894876D01*
X-10521485Y+3918848D01*
X-10532762Y+3940438D01*
X-10547878Y+3959170D01*
X-10566446Y+3974569D01*
X-10588081Y+3986158D01*
X-10612394Y+3993460D01*
X-10639000Y+3996000D01*
X-10512000Y+3869000D02*
X-10514436Y+3842394D01*
X-10521485Y+3818081D01*
X-10532762Y+3796446D01*
X-10547878Y+3777878D01*
X-10566446Y+3762762D01*
X-10588081Y+3751485D01*
X-10612394Y+3744436D01*
X-10639000Y+3742000D01*
X-10771080Y+3742000D02*
X-10694880Y+3742000D01*
X-10679640Y+3757875D01*
X-10679640Y+3821375D01*
X-10694880Y+3837250D01*
X-10771080Y+3837250D01*
X-10740600Y+3900750D02*
X-10771080Y+3932500D01*
X-10679640Y+3932500D01*
X-11381000Y+623000D02*
X-10619000Y+623000D01*
X-10619000Y+877000D01*
X-11381000Y+877000D01*
X-11381000Y+623000D01*
X-10619000Y+623000D02*
X-10619000Y+496000D01*
X-11381000Y+496000D01*
X-11381000Y+623000D01*
X-10619000Y+623000D02*
X-10746000Y+496000D01*
X-10746000Y+623000D02*
X-10873000Y+496000D01*
X-10873000Y+623000D02*
X-11000000Y+496000D01*
X-11000000Y+623000D02*
X-11127000Y+496000D01*
X-11127000Y+623000D02*
X-11254000Y+496000D01*
X-11254000Y+623000D02*
X-11381000Y+496000D01*
X-11127000Y+455360D02*
X-11127000Y+379160D01*
X-11111125Y+363920D01*
X-11047625Y+363920D01*
X-11031750Y+379160D01*
X-11031750Y+455360D01*
X-10984125Y+440120D02*
X-10968250Y+455360D01*
X-10920625Y+455360D01*
X-10904750Y+440120D01*
X-10904750Y+424880D01*
X-10920625Y+409640D01*
X-10904750Y+394400D01*
X-10904750Y+379160D01*
X-10920625Y+363920D01*
X-10968250Y+363920D01*
X-10984125Y+379160D01*
X-10952375Y+409640D02*
X-10920625Y+409640D01*
X-10131000Y+623000D02*
X-9369000Y+623000D01*
X-9369000Y+877000D01*
X-10131000Y+877000D01*
X-10131000Y+623000D01*
X-9369000Y+623000D02*
X-9369000Y+496000D01*
X-10131000Y+496000D01*
X-10131000Y+623000D01*
X-9369000Y+623000D02*
X-9496000Y+496000D01*
X-9496000Y+623000D02*
X-9623000Y+496000D01*
X-9623000Y+623000D02*
X-9750000Y+496000D01*
X-9750000Y+623000D02*
X-9877000Y+496000D01*
X-9877000Y+623000D02*
X-10004000Y+496000D01*
X-10004000Y+623000D02*
X-10131000Y+496000D01*
X-9877000Y+455360D02*
X-9877000Y+379160D01*
X-9861125Y+363920D01*
X-9797625Y+363920D01*
X-9781750Y+379160D01*
X-9781750Y+455360D01*
X-9654750Y+394400D02*
X-9750000Y+394400D01*
X-9686500Y+455360D01*
X-9686500Y+363920D01*
X-10500000Y+1881000D02*
X-10474124Y+1875920D01*
X-10450152Y+1861315D01*
X-10428562Y+1838138D01*
X-10409830Y+1807340D01*
X-10394431Y+1769875D01*
X-10382842Y+1726695D01*
X-10375540Y+1678752D01*
X-10373000Y+1627000D01*
X-10500000Y+1373000D02*
X-10474124Y+1378080D01*
X-10450152Y+1392685D01*
X-10428562Y+1415862D01*
X-10409830Y+1446660D01*
X-10394431Y+1484125D01*
X-10382842Y+1527305D01*
X-10375540Y+1575248D01*
X-10373000Y+1627000D01*
X-10500000Y+1881000D02*
X-10525876Y+1875920D01*
X-10549848Y+1861315D01*
X-10571438Y+1838138D01*
X-10590170Y+1807340D01*
X-10605569Y+1769875D01*
X-10617158Y+1726695D01*
X-10624460Y+1678752D01*
X-10627000Y+1627000D01*
X-10500000Y+1373000D02*
X-10525876Y+1378080D01*
X-10549848Y+1392685D01*
X-10571438Y+1415862D01*
X-10590170Y+1446660D01*
X-10605569Y+1484125D01*
X-10617158Y+1527305D01*
X-10624460Y+1575248D01*
X-10627000Y+1627000D01*
X-10256160Y+1591250D02*
X-10240920Y+1575375D01*
X-10240920Y+1527750D01*
X-10271400Y+1496000D01*
X-10301880Y+1496000D01*
X-10332360Y+1527750D01*
X-10332360Y+1575375D01*
X-10317120Y+1591250D01*
X-10317120Y+1638875D02*
X-10332360Y+1654750D01*
X-10332360Y+1702375D01*
X-10317120Y+1718250D01*
X-10301880Y+1718250D01*
X-10286640Y+1702375D01*
X-10271400Y+1718250D01*
X-10256160Y+1718250D01*
X-10240920Y+1702375D01*
X-10240920Y+1654750D01*
X-10256160Y+1638875D01*
X-10286640Y+1670625D02*
X-10286640Y+1702375D01*
X-10000000Y+1881000D02*
X-9974124Y+1875920D01*
X-9950152Y+1861315D01*
X-9928562Y+1838138D01*
X-9909830Y+1807340D01*
X-9894431Y+1769875D01*
X-9882842Y+1726695D01*
X-9875540Y+1678752D01*
X-9873000Y+1627000D01*
X-10000000Y+1373000D02*
X-9974124Y+1378080D01*
X-9950152Y+1392685D01*
X-9928562Y+1415862D01*
X-9909830Y+1446660D01*
X-9894431Y+1484125D01*
X-9882842Y+1527305D01*
X-9875540Y+1575248D01*
X-9873000Y+1627000D01*
X-10000000Y+1881000D02*
X-10025876Y+1875920D01*
X-10049848Y+1861315D01*
X-10071438Y+1838138D01*
X-10090170Y+1807340D01*
X-10105569Y+1769875D01*
X-10117158Y+1726695D01*
X-10124460Y+1678752D01*
X-10127000Y+1627000D01*
X-10000000Y+1373000D02*
X-10025876Y+1378080D01*
X-10049848Y+1392685D01*
X-10071438Y+1415862D01*
X-10090170Y+1446660D01*
X-10105569Y+1484125D01*
X-10117158Y+1527305D01*
X-10124460Y+1575248D01*
X-10127000Y+1627000D01*
X-9756160Y+1595250D02*
X-9740920Y+1579375D01*
X-9740920Y+1531750D01*
X-9771400Y+1500000D01*
X-9801880Y+1500000D01*
X-9832360Y+1531750D01*
X-9832360Y+1579375D01*
X-9817120Y+1595250D01*
X-9771400Y+1722250D02*
X-9771400Y+1627000D01*
X-9832360Y+1690500D01*
X-9740920Y+1690500D01*
X-11250000Y+1373000D02*
X-11275876Y+1378080D01*
X-11299848Y+1392685D01*
X-11321438Y+1415862D01*
X-11340170Y+1446660D01*
X-11355569Y+1484125D01*
X-11367158Y+1527305D01*
X-11374460Y+1575248D01*
X-11377000Y+1627000D01*
X-11250000Y+1881000D02*
X-11275876Y+1875920D01*
X-11299848Y+1861315D01*
X-11321438Y+1838138D01*
X-11340170Y+1807340D01*
X-11355569Y+1769875D01*
X-11367158Y+1726695D01*
X-11374460Y+1678752D01*
X-11377000Y+1627000D01*
X-11250000Y+1373000D02*
X-11224124Y+1378080D01*
X-11200152Y+1392685D01*
X-11178562Y+1415862D01*
X-11159830Y+1446660D01*
X-11144431Y+1484125D01*
X-11132842Y+1527305D01*
X-11125540Y+1575248D01*
X-11123000Y+1627000D01*
X-11250000Y+1881000D02*
X-11224124Y+1875920D01*
X-11200152Y+1861315D01*
X-11178562Y+1838138D01*
X-11159830Y+1807340D01*
X-11144431Y+1769875D01*
X-11132842Y+1726695D01*
X-11125540Y+1678752D01*
X-11123000Y+1627000D01*
X-11432880Y+1595250D02*
X-11417640Y+1579375D01*
X-11417640Y+1531750D01*
X-11448120Y+1500000D01*
X-11478600Y+1500000D01*
X-11509080Y+1531750D01*
X-11509080Y+1579375D01*
X-11493840Y+1595250D01*
X-11509080Y+1722250D02*
X-11509080Y+1642875D01*
X-11478600Y+1642875D01*
X-11478600Y+1706375D01*
X-11463360Y+1722250D01*
X-11432880Y+1722250D01*
X-11417640Y+1706375D01*
X-11417640Y+1658750D01*
X-11432880Y+1642875D01*
X-12127000Y+1369000D02*
X-11873000Y+1369000D01*
X-11873000Y+1877000D01*
X-12127000Y+1877000D01*
X-12127000Y+1369000D01*
X-11832360Y+1257875D02*
X-11832360Y+1321375D01*
X-11832360Y+1289625D02*
X-11740920Y+1289625D01*
X-11740920Y+1257875D02*
X-11740920Y+1321375D01*
X-11740920Y+1369000D02*
X-11832360Y+1369000D01*
X-11740920Y+1464250D01*
X-11832360Y+1464250D01*
X-11725680Y+1496000D02*
X-11725680Y+1591250D01*
X-11740920Y+1623000D02*
X-11832360Y+1623000D01*
X-11832360Y+1702375D01*
X-11817120Y+1718250D01*
X-11801880Y+1718250D01*
X-11786640Y+1702375D01*
X-11786640Y+1623000D01*
X-11786640Y+1702375D02*
X-11771400Y+1718250D01*
X-11740920Y+1718250D01*
X-11740920Y+1845250D02*
X-11740920Y+1750000D01*
X-11832360Y+1750000D01*
X-11832360Y+1845250D01*
X-11786640Y+1750000D02*
X-11786640Y+1813500D01*
X-11771400Y+1940500D02*
X-11771400Y+1972250D01*
X-11740920Y+1972250D01*
X-11740920Y+1908750D01*
X-11771400Y+1877000D01*
X-11801880Y+1877000D01*
X-11832360Y+1908750D01*
X-11832360Y+1956375D01*
X-11817120Y+1972250D01*
X-9250000Y+1881000D02*
X-9224124Y+1875920D01*
X-9200152Y+1861315D01*
X-9178562Y+1838138D01*
X-9159830Y+1807340D01*
X-9144431Y+1769875D01*
X-9132842Y+1726695D01*
X-9125540Y+1678752D01*
X-9123000Y+1627000D01*
X-9250000Y+1373000D02*
X-9224124Y+1378080D01*
X-9200152Y+1392685D01*
X-9178562Y+1415862D01*
X-9159830Y+1446660D01*
X-9144431Y+1484125D01*
X-9132842Y+1527305D01*
X-9125540Y+1575248D01*
X-9123000Y+1627000D01*
X-9250000Y+1881000D02*
X-9275876Y+1875920D01*
X-9299848Y+1861315D01*
X-9321438Y+1838138D01*
X-9340170Y+1807340D01*
X-9355569Y+1769875D01*
X-9367158Y+1726695D01*
X-9374460Y+1678752D01*
X-9377000Y+1627000D01*
X-9250000Y+1373000D02*
X-9275876Y+1378080D01*
X-9299848Y+1392685D01*
X-9321438Y+1415862D01*
X-9340170Y+1446660D01*
X-9355569Y+1484125D01*
X-9367158Y+1527305D01*
X-9374460Y+1575248D01*
X-9377000Y+1627000D01*
X-9006160Y+1595250D02*
X-8990920Y+1579375D01*
X-8990920Y+1531750D01*
X-9021400Y+1500000D01*
X-9051880Y+1500000D01*
X-9082360Y+1531750D01*
X-9082360Y+1579375D01*
X-9067120Y+1595250D01*
X-9067120Y+1722250D02*
X-9082360Y+1706375D01*
X-9082360Y+1658750D01*
X-9067120Y+1642875D01*
X-9006160Y+1642875D01*
X-8990920Y+1658750D01*
X-8990920Y+1706375D01*
X-9006160Y+1722250D01*
X-9021400Y+1722250D01*
X-9036640Y+1706375D01*
X-9036640Y+1642875D01*
X-8762000Y+369000D02*
X-7746000Y+369000D01*
X-7746000Y+1004000D01*
X-8762000Y+1004000D01*
X-8762000Y+369000D01*
X-7746000Y+496000D02*
X-8762000Y+496000D01*
X-8698500Y+297880D02*
X-8666750Y+328360D01*
X-8635000Y+328360D01*
X-8603250Y+297880D01*
X-8603250Y+267400D01*
X-8635000Y+236920D01*
X-8666750Y+236920D01*
X-8698500Y+267400D01*
X-8698500Y+297880D01*
X-8571500Y+328360D02*
X-8571500Y+252160D01*
X-8555625Y+236920D01*
X-8492125Y+236920D01*
X-8476250Y+252160D01*
X-8476250Y+328360D01*
X-8444500Y+328360D02*
X-8349250Y+328360D01*
X-8396875Y+328360D02*
X-8396875Y+236920D01*
X-8317500Y+221680D02*
X-8222250Y+221680D01*
X-8190500Y+236920D02*
X-8190500Y+328360D01*
X-8111125Y+328360D01*
X-8095250Y+313120D01*
X-8095250Y+297880D01*
X-8111125Y+282640D01*
X-8190500Y+282640D01*
X-8111125Y+282640D02*
X-8095250Y+267400D01*
X-8095250Y+236920D01*
X-7968250Y+236920D02*
X-8063500Y+236920D01*
X-8063500Y+328360D01*
X-7968250Y+328360D01*
X-8063500Y+282640D02*
X-8000000Y+282640D01*
X-7873000Y+267400D02*
X-7841250Y+267400D01*
X-7841250Y+236920D01*
X-7904750Y+236920D01*
X-7936500Y+267400D01*
X-7936500Y+297880D01*
X-7904750Y+328360D01*
X-7857125Y+328360D01*
X-7841250Y+313120D01*
X-10389000Y+2500000D02*
X-10262000Y+2500000D01*
X-10262000Y+2436500D02*
X-9754000Y+2436500D01*
X-9754000Y+2563500D01*
X-10262000Y+2563500D01*
X-10262000Y+2436500D01*
X-9754000Y+2500000D02*
X-9627000Y+2500000D01*
X-10135000Y+2604140D02*
X-10135000Y+2695580D01*
X-10055625Y+2695580D01*
X-10039750Y+2680340D01*
X-10039750Y+2665100D01*
X-10055625Y+2649860D01*
X-10135000Y+2649860D01*
X-10055625Y+2649860D02*
X-10039750Y+2634620D01*
X-10039750Y+2604140D01*
X-9976250Y+2665100D02*
X-9944500Y+2695580D01*
X-9944500Y+2604140D01*
X-11250000Y+3373000D02*
X-11250000Y+3246000D01*
X-11313500Y+2738000D02*
X-11186500Y+2738000D01*
X-11186500Y+3246000D01*
X-11313500Y+3246000D01*
X-11313500Y+2738000D01*
X-11250000Y+2738000D02*
X-11250000Y+2611000D01*
X-11054420Y+2865000D02*
X-11145860Y+2865000D01*
X-11145860Y+2944375D01*
X-11130620Y+2960250D01*
X-11115380Y+2960250D01*
X-11100140Y+2944375D01*
X-11100140Y+2865000D01*
X-11100140Y+2944375D02*
X-11084900Y+2960250D01*
X-11054420Y+2960250D01*
X-11130620Y+3007875D02*
X-11145860Y+3023750D01*
X-11145860Y+3071375D01*
X-11130620Y+3087250D01*
X-11115380Y+3087250D01*
X-11100140Y+3071375D01*
X-11100140Y+3023750D01*
X-11084900Y+3007875D01*
X-11054420Y+3007875D01*
X-11054420Y+3087250D01*
X-9000000Y+3373000D02*
X-9000000Y+3246000D01*
X-9063500Y+2738000D02*
X-8936500Y+2738000D01*
X-8936500Y+3246000D01*
X-9063500Y+3246000D01*
X-9063500Y+2738000D01*
X-9000000Y+2738000D02*
X-9000000Y+2611000D01*
X-8804420Y+2865000D02*
X-8895860Y+2865000D01*
X-8895860Y+2944375D01*
X-8880620Y+2960250D01*
X-8865380Y+2960250D01*
X-8850140Y+2944375D01*
X-8850140Y+2865000D01*
X-8850140Y+2944375D02*
X-8834900Y+2960250D01*
X-8804420Y+2960250D01*
X-8880620Y+3007875D02*
X-8895860Y+3023750D01*
X-8895860Y+3071375D01*
X-8880620Y+3087250D01*
X-8865380Y+3087250D01*
X-8850140Y+3071375D01*
X-8834900Y+3087250D01*
X-8819660Y+3087250D01*
X-8804420Y+3071375D01*
X-8804420Y+3023750D01*
X-8819660Y+3007875D01*
X-8850140Y+3039625D02*
X-8850140Y+3071375D01*
X-8000000Y+3127000D02*
X-7974124Y+3119484D01*
X-7950152Y+3097830D01*
X-7928562Y+3063376D01*
X-7909830Y+3017462D01*
X-7894431Y+2961429D01*
X-7882842Y+2896614D01*
X-7875540Y+2824358D01*
X-7873000Y+2746000D01*
X-8000000Y+2365000D02*
X-7974124Y+2372620D01*
X-7950152Y+2394528D01*
X-7928562Y+2429294D01*
X-7909830Y+2475490D01*
X-7894431Y+2531688D01*
X-7882842Y+2596458D01*
X-7875540Y+2668371D01*
X-7873000Y+2746000D01*
X-8000000Y+2365000D02*
X-8025876Y+2372620D01*
X-8049848Y+2394528D01*
X-8071438Y+2429294D01*
X-8090170Y+2475490D01*
X-8105569Y+2531688D01*
X-8117158Y+2596458D01*
X-8124460Y+2668371D01*
X-8127000Y+2746000D01*
X-8000000Y+3127000D02*
X-8025876Y+3119484D01*
X-8049848Y+3097830D01*
X-8071438Y+3063376D01*
X-8090170Y+3017462D01*
X-8105569Y+2961429D01*
X-8117158Y+2896614D01*
X-8124460Y+2824358D01*
X-8127000Y+2746000D01*
X-7756160Y+2714250D02*
X-7740920Y+2698375D01*
X-7740920Y+2650750D01*
X-7771400Y+2619000D01*
X-7801880Y+2619000D01*
X-7832360Y+2650750D01*
X-7832360Y+2698375D01*
X-7817120Y+2714250D01*
X-7801880Y+2777750D02*
X-7832360Y+2809500D01*
X-7740920Y+2809500D01*
X-8000000Y+4373000D02*
X-8000000Y+4246000D01*
X-8063500Y+3738000D02*
X-7936500Y+3738000D01*
X-7936500Y+4246000D01*
X-8063500Y+4246000D01*
X-8063500Y+3738000D01*
X-8000000Y+3738000D02*
X-8000000Y+3611000D01*
X-7804420Y+3865000D02*
X-7895860Y+3865000D01*
X-7895860Y+3944375D01*
X-7880620Y+3960250D01*
X-7865380Y+3960250D01*
X-7850140Y+3944375D01*
X-7850140Y+3865000D01*
X-7850140Y+3944375D02*
X-7834900Y+3960250D01*
X-7804420Y+3960250D01*
X-7865380Y+4087250D02*
X-7850140Y+4071375D01*
X-7850140Y+4023750D01*
X-7865380Y+4007875D01*
X-7880620Y+4007875D01*
X-7895860Y+4023750D01*
X-7895860Y+4071375D01*
X-7880620Y+4087250D01*
X-7819660Y+4087250D01*
X-7804420Y+4071375D01*
X-7804420Y+4023750D01*
X-11123000Y+4750000D02*
X-10996000Y+4750000D01*
X-10996000Y+4686500D02*
X-10488000Y+4686500D01*
X-10488000Y+4813500D01*
X-10996000Y+4813500D01*
X-10996000Y+4686500D01*
X-10488000Y+4750000D02*
X-10361000Y+4750000D01*
X-10869000Y+4854140D02*
X-10869000Y+4945580D01*
X-10789625Y+4945580D01*
X-10773750Y+4930340D01*
X-10773750Y+4915100D01*
X-10789625Y+4899860D01*
X-10869000Y+4899860D01*
X-10789625Y+4899860D02*
X-10773750Y+4884620D01*
X-10773750Y+4854140D01*
X-10646750Y+4884620D02*
X-10742000Y+4884620D01*
X-10678500Y+4945580D01*
X-10678500Y+4854140D01*
X-9111000Y+4750000D02*
X-9238000Y+4750000D01*
X-9746000Y+4686500D02*
X-9238000Y+4686500D01*
X-9238000Y+4813500D01*
X-9746000Y+4813500D01*
X-9746000Y+4686500D01*
X-9746000Y+4750000D02*
X-9873000Y+4750000D01*
X-9619000Y+4554420D02*
X-9619000Y+4645860D01*
X-9539625Y+4645860D01*
X-9523750Y+4630620D01*
X-9523750Y+4615380D01*
X-9539625Y+4600140D01*
X-9619000Y+4600140D01*
X-9539625Y+4600140D02*
X-9523750Y+4584900D01*
X-9523750Y+4554420D01*
X-9396750Y+4645860D02*
X-9476125Y+4645860D01*
X-9476125Y+4615380D01*
X-9412625Y+4615380D01*
X-9396750Y+4600140D01*
X-9396750Y+4569660D01*
X-9412625Y+4554420D01*
X-9460250Y+4554420D01*
X-9476125Y+4569660D01*
X-8500000Y+3627000D02*
X-8500000Y+3754000D01*
X-8563500Y+3754000D02*
X-8436500Y+3754000D01*
X-8436500Y+4262000D01*
X-8563500Y+4262000D01*
X-8563500Y+3754000D01*
X-8500000Y+4262000D02*
X-8500000Y+4389000D01*
X-8604140Y+3881000D02*
X-8695580Y+3881000D01*
X-8695580Y+3960375D01*
X-8680340Y+3976250D01*
X-8665100Y+3976250D01*
X-8649860Y+3960375D01*
X-8649860Y+3881000D01*
X-8649860Y+3960375D02*
X-8634620Y+3976250D01*
X-8604140Y+3976250D01*
X-8680340Y+4103250D02*
X-8695580Y+4087375D01*
X-8695580Y+4039750D01*
X-8680340Y+4023875D01*
X-8619380Y+4023875D01*
X-8604140Y+4039750D01*
X-8604140Y+4087375D01*
X-8619380Y+4103250D01*
X-8634620Y+4103250D01*
X-8649860Y+4087375D01*
X-8649860Y+4023875D01*
X-11123000Y+5250000D02*
X-10996000Y+5250000D01*
X-10996000Y+5186500D02*
X-10488000Y+5186500D01*
X-10488000Y+5313500D01*
X-10996000Y+5313500D01*
X-10996000Y+5186500D01*
X-10488000Y+5250000D02*
X-10361000Y+5250000D01*
X-10869000Y+5354140D02*
X-10869000Y+5445580D01*
X-10789625Y+5445580D01*
X-10773750Y+5430340D01*
X-10773750Y+5415100D01*
X-10789625Y+5399860D01*
X-10869000Y+5399860D01*
X-10789625Y+5399860D02*
X-10773750Y+5384620D01*
X-10773750Y+5354140D01*
X-10726125Y+5445580D02*
X-10646750Y+5445580D01*
X-10646750Y+5430340D01*
X-10726125Y+5354140D01*
X-11940500Y+3805500D02*
X-11559500Y+3805500D01*
X-11559500Y+4694500D01*
X-11940500Y+4694500D01*
X-11940500Y+3805500D01*
X-11724600Y+3932500D02*
X-11724902Y+3939822D01*
X-11727357Y+3954467D01*
X-11732489Y+3969112D01*
X-11740864Y+3983757D01*
X-11753678Y+3998261D01*
X-11768323Y+4009065D01*
X-11782968Y+4015993D01*
X-11797613Y+4019969D01*
X-11812258Y+4021391D01*
X-11813500Y+4021400D01*
X-11902400Y+3932500D02*
X-11902098Y+3939822D01*
X-11899643Y+3954467D01*
X-11894511Y+3969112D01*
X-11886136Y+3983757D01*
X-11873322Y+3998261D01*
X-11858677Y+4009065D01*
X-11844032Y+4015993D01*
X-11829387Y+4019969D01*
X-11814742Y+4021391D01*
X-11813500Y+4021400D01*
X-11902400Y+3932500D02*
X-11902098Y+3925178D01*
X-11899643Y+3910533D01*
X-11894511Y+3895888D01*
X-11886136Y+3881243D01*
X-11873322Y+3866739D01*
X-11858677Y+3855935D01*
X-11844032Y+3849007D01*
X-11829387Y+3845031D01*
X-11814742Y+3843609D01*
X-11813500Y+3843600D01*
X-11724600Y+3932500D02*
X-11724902Y+3925178D01*
X-11727357Y+3910533D01*
X-11732489Y+3895888D01*
X-11740864Y+3881243D01*
X-11753678Y+3866739D01*
X-11768323Y+3855935D01*
X-11782968Y+3849007D01*
X-11797613Y+3845031D01*
X-11812258Y+3843609D01*
X-11813500Y+3843600D01*
X-11750000Y+3869000D02*
X-11877000Y+3996000D01*
X-11981140Y+4059500D02*
X-12072580Y+4059500D01*
X-12072580Y+4138875D01*
X-12057340Y+4154750D01*
X-12042100Y+4154750D01*
X-12026860Y+4138875D01*
X-12026860Y+4059500D01*
X-12026860Y+4138875D02*
X-12011620Y+4154750D01*
X-11981140Y+4154750D01*
X-12072580Y+4186500D02*
X-12026860Y+4186500D01*
X-11981140Y+4234125D01*
X-12026860Y+4281750D01*
X-12072580Y+4281750D01*
X-12057340Y+4329375D02*
X-12072580Y+4345250D01*
X-12072580Y+4392875D01*
X-12057340Y+4408750D01*
X-12042100Y+4408750D01*
X-12026860Y+4392875D01*
X-12026860Y+4345250D01*
X-12011620Y+4329375D01*
X-11981140Y+4329375D01*
X-11981140Y+4408750D01*
X-11940500Y+4805500D02*
X-11559500Y+4805500D01*
X-11559500Y+5694500D01*
X-11940500Y+5694500D01*
X-11940500Y+4805500D01*
X-11724600Y+4932500D02*
X-11724902Y+4939822D01*
X-11727357Y+4954467D01*
X-11732489Y+4969112D01*
X-11740864Y+4983757D01*
X-11753678Y+4998261D01*
X-11768323Y+5009065D01*
X-11782968Y+5015993D01*
X-11797613Y+5019969D01*
X-11812258Y+5021391D01*
X-11813500Y+5021400D01*
X-11902400Y+4932500D02*
X-11902098Y+4939822D01*
X-11899643Y+4954467D01*
X-11894511Y+4969112D01*
X-11886136Y+4983757D01*
X-11873322Y+4998261D01*
X-11858677Y+5009065D01*
X-11844032Y+5015993D01*
X-11829387Y+5019969D01*
X-11814742Y+5021391D01*
X-11813500Y+5021400D01*
X-11902400Y+4932500D02*
X-11902098Y+4925178D01*
X-11899643Y+4910533D01*
X-11894511Y+4895888D01*
X-11886136Y+4881243D01*
X-11873322Y+4866739D01*
X-11858677Y+4855935D01*
X-11844032Y+4849007D01*
X-11829387Y+4845031D01*
X-11814742Y+4843609D01*
X-11813500Y+4843600D01*
X-11724600Y+4932500D02*
X-11724902Y+4925178D01*
X-11727357Y+4910533D01*
X-11732489Y+4895888D01*
X-11740864Y+4881243D01*
X-11753678Y+4866739D01*
X-11768323Y+4855935D01*
X-11782968Y+4849007D01*
X-11797613Y+4845031D01*
X-11812258Y+4843609D01*
X-11813500Y+4843600D01*
X-11750000Y+4869000D02*
X-11877000Y+4996000D01*
X-11981140Y+5059500D02*
X-12072580Y+5059500D01*
X-12072580Y+5138875D01*
X-12057340Y+5154750D01*
X-12042100Y+5154750D01*
X-12026860Y+5138875D01*
X-12026860Y+5059500D01*
X-12026860Y+5138875D02*
X-12011620Y+5154750D01*
X-11981140Y+5154750D01*
X-12072580Y+5186500D02*
X-12026860Y+5186500D01*
X-11981140Y+5234125D01*
X-12026860Y+5281750D01*
X-12072580Y+5281750D01*
X-12057340Y+5329375D02*
X-12072580Y+5345250D01*
X-12072580Y+5392875D01*
X-12057340Y+5408750D01*
X-12042100Y+5408750D01*
X-12026860Y+5392875D01*
X-12011620Y+5408750D01*
X-11996380Y+5408750D01*
X-11981140Y+5392875D01*
X-11981140Y+5345250D01*
X-11996380Y+5329375D01*
X-12026860Y+5361125D02*
X-12026860Y+5392875D01*
X-10001080Y+5867920D02*
X-9482920Y+5867920D01*
X-9482920Y+6134620D01*
X-10001080Y+6134620D01*
X-10001080Y+5867920D01*
X-9919800Y+6132080D02*
X-9919800Y+5870460D01*
X-10072200Y+6000000D02*
X-10001080Y+6000000D01*
X-9482920Y+6000000D02*
X-9411800Y+6000000D01*
X-9869000Y+6175260D02*
X-9869000Y+6266700D01*
X-9805500Y+6266700D01*
X-9773750Y+6236220D01*
X-9773750Y+6205740D01*
X-9805500Y+6175260D01*
X-9869000Y+6175260D01*
X-9710250Y+6236220D02*
X-9678500Y+6266700D01*
X-9678500Y+6175260D01*
X-11501080Y+5865380D02*
X-10982920Y+5865380D01*
X-10982920Y+6132080D01*
X-11501080Y+6132080D01*
X-11501080Y+5865380D01*
X-11064200Y+5867920D02*
X-11064200Y+6129540D01*
X-10911800Y+6000000D02*
X-10982920Y+6000000D01*
X-11501080Y+6000000D02*
X-11572200Y+6000000D01*
X-11369000Y+5733300D02*
X-11369000Y+5824740D01*
X-11305500Y+5824740D01*
X-11273750Y+5794260D01*
X-11273750Y+5763780D01*
X-11305500Y+5733300D01*
X-11369000Y+5733300D01*
X-11226125Y+5809500D02*
X-11210250Y+5824740D01*
X-11162625Y+5824740D01*
X-11146750Y+5809500D01*
X-11146750Y+5794260D01*
X-11162625Y+5779020D01*
X-11210250Y+5779020D01*
X-11226125Y+5763780D01*
X-11226125Y+5733300D01*
X-11146750Y+5733300D01*
X-2540000Y+4423000D02*
X-2032000Y+4423000D01*
X-2032000Y+4677000D01*
X-2540000Y+4677000D01*
X-2540000Y+4423000D01*
X-2413000Y+4321400D02*
X-2413000Y+4306160D01*
X-2397125Y+4290920D01*
X-2333625Y+4290920D01*
X-2317750Y+4306160D01*
X-2317750Y+4382360D01*
X-2190750Y+4367120D02*
X-2206625Y+4382360D01*
X-2254250Y+4382360D01*
X-2270125Y+4367120D01*
X-2270125Y+4306160D01*
X-2254250Y+4290920D01*
X-2206625Y+4290920D01*
X-2190750Y+4306160D01*
X-2190750Y+4321400D01*
X-2206625Y+4336640D01*
X-2270125Y+4336640D01*
X-5877000Y+1923000D02*
X-5623000Y+1923000D01*
X-5623000Y+2177000D01*
X-5877000Y+2177000D01*
X-5877000Y+1923000D01*
X-5940500Y+1821400D02*
X-5940500Y+1806160D01*
X-5924625Y+1790920D01*
X-5861125Y+1790920D01*
X-5845250Y+1806160D01*
X-5845250Y+1882360D01*
X-5781750Y+1851880D02*
X-5750000Y+1882360D01*
X-5750000Y+1790920D01*
X-5686500Y+1806160D02*
X-5686500Y+1867120D01*
X-5670625Y+1882360D01*
X-5607125Y+1882360D01*
X-5591250Y+1867120D01*
X-5591250Y+1806160D01*
X-5607125Y+1790920D01*
X-5670625Y+1790920D01*
X-5686500Y+1806160D01*
X-5686500Y+1790920D02*
X-5591250Y+1882360D01*
X-5877000Y+2923000D02*
X-5623000Y+2923000D01*
X-5623000Y+3177000D01*
X-5877000Y+3177000D01*
X-5877000Y+2923000D01*
X-5940500Y+2821400D02*
X-5940500Y+2806160D01*
X-5924625Y+2790920D01*
X-5861125Y+2790920D01*
X-5845250Y+2806160D01*
X-5845250Y+2882360D01*
X-5781750Y+2851880D02*
X-5750000Y+2882360D01*
X-5750000Y+2790920D01*
X-5591250Y+2867120D02*
X-5607125Y+2882360D01*
X-5654750Y+2882360D01*
X-5670625Y+2867120D01*
X-5670625Y+2806160D01*
X-5654750Y+2790920D01*
X-5607125Y+2790920D01*
X-5591250Y+2806160D01*
X-5591250Y+2821400D01*
X-5607125Y+2836640D01*
X-5670625Y+2836640D01*
X-5877000Y+5173000D02*
X-5623000Y+5173000D01*
X-5623000Y+5681000D01*
X-5877000Y+5681000D01*
X-5877000Y+5173000D01*
X-5948120Y+5236500D02*
X-5932880Y+5236500D01*
X-5917640Y+5252375D01*
X-5917640Y+5315875D01*
X-5932880Y+5331750D01*
X-6009080Y+5331750D01*
X-5978600Y+5395250D02*
X-6009080Y+5427000D01*
X-5917640Y+5427000D01*
X-5993840Y+5506375D02*
X-6009080Y+5522250D01*
X-6009080Y+5569875D01*
X-5993840Y+5585750D01*
X-5978600Y+5585750D01*
X-5963360Y+5569875D01*
X-5963360Y+5522250D01*
X-5948120Y+5506375D01*
X-5917640Y+5506375D01*
X-5917640Y+5585750D01*
X-3377000Y+1923000D02*
X-3123000Y+1923000D01*
X-3123000Y+2177000D01*
X-3377000Y+2177000D01*
X-3377000Y+1923000D01*
X-3448120Y+1859500D02*
X-3432880Y+1859500D01*
X-3417640Y+1875375D01*
X-3417640Y+1938875D01*
X-3432880Y+1954750D01*
X-3509080Y+1954750D01*
X-3478600Y+2018250D02*
X-3509080Y+2050000D01*
X-3417640Y+2050000D01*
X-3478600Y+2145250D02*
X-3509080Y+2177000D01*
X-3417640Y+2177000D01*
X-3377000Y+5173000D02*
X-3123000Y+5173000D01*
X-3123000Y+5681000D01*
X-3377000Y+5681000D01*
X-3377000Y+5173000D01*
X-3021400Y+5236500D02*
X-3006160Y+5236500D01*
X-2990920Y+5252375D01*
X-2990920Y+5315875D01*
X-3006160Y+5331750D01*
X-3082360Y+5331750D01*
X-3051880Y+5395250D02*
X-3082360Y+5427000D01*
X-2990920Y+5427000D01*
X-3067120Y+5506375D02*
X-3082360Y+5522250D01*
X-3082360Y+5569875D01*
X-3067120Y+5585750D01*
X-3051880Y+5585750D01*
X-3036640Y+5569875D01*
X-3021400Y+5585750D01*
X-3006160Y+5585750D01*
X-2990920Y+5569875D01*
X-2990920Y+5522250D01*
X-3006160Y+5506375D01*
X-3036640Y+5538125D02*
X-3036640Y+5569875D01*
X-12638500Y+6400000D02*
X-11338500Y+6400000D01*
X-11338500Y+7900000D01*
X-12638500Y+7900000D01*
X-12638500Y+6400000D01*
X-12306000Y+7940640D02*
X-12306000Y+8032080D01*
X-12226625Y+8032080D01*
X-12210750Y+8016840D01*
X-12210750Y+8001600D01*
X-12226625Y+7986360D01*
X-12306000Y+7986360D01*
X-12226625Y+7986360D02*
X-12210750Y+7971120D01*
X-12210750Y+7940640D01*
X-12179000Y+7971120D02*
X-12179000Y+7955880D01*
X-12163125Y+7940640D01*
X-12099625Y+7940640D01*
X-12083750Y+7955880D01*
X-12083750Y+8032080D01*
X-11829750Y+7971120D02*
X-11925000Y+7971120D01*
X-11861500Y+8032080D01*
X-11861500Y+7940640D01*
X-11702750Y+8032080D02*
X-11782125Y+8032080D01*
X-11782125Y+8001600D01*
X-11718625Y+8001600D01*
X-11702750Y+7986360D01*
X-11702750Y+7955880D01*
X-11718625Y+7940640D01*
X-11766250Y+7940640D01*
X-11782125Y+7955880D01*
X-6961000Y+5900000D02*
X-7088000Y+5900000D01*
X-7596000Y+5836500D02*
X-7088000Y+5836500D01*
X-7088000Y+5963500D01*
X-7596000Y+5963500D01*
X-7596000Y+5836500D01*
X-7596000Y+5900000D02*
X-7723000Y+5900000D01*
X-7469000Y+5704420D02*
X-7469000Y+5795860D01*
X-7389625Y+5795860D01*
X-7373750Y+5780620D01*
X-7373750Y+5765380D01*
X-7389625Y+5750140D01*
X-7469000Y+5750140D01*
X-7389625Y+5750140D02*
X-7373750Y+5734900D01*
X-7373750Y+5704420D01*
X-7310250Y+5750140D02*
X-7326125Y+5765380D01*
X-7326125Y+5780620D01*
X-7310250Y+5795860D01*
X-7262625Y+5795860D01*
X-7246750Y+5780620D01*
X-7246750Y+5765380D01*
X-7262625Y+5750140D01*
X-7310250Y+5750140D01*
X-7326125Y+5734900D01*
X-7326125Y+5719660D01*
X-7310250Y+5704420D01*
X-7262625Y+5704420D01*
X-7246750Y+5719660D01*
X-7246750Y+5734900D01*
X-7262625Y+5750140D01*
X-6977000Y+6555000D02*
X-7104000Y+6555000D01*
X-7612000Y+6491500D02*
X-7104000Y+6491500D01*
X-7104000Y+6618500D01*
X-7612000Y+6618500D01*
X-7612000Y+6491500D01*
X-7612000Y+6555000D02*
X-7739000Y+6555000D01*
X-7548500Y+6359420D02*
X-7548500Y+6450860D01*
X-7469125Y+6450860D01*
X-7453250Y+6435620D01*
X-7453250Y+6420380D01*
X-7469125Y+6405140D01*
X-7548500Y+6405140D01*
X-7469125Y+6405140D02*
X-7453250Y+6389900D01*
X-7453250Y+6359420D01*
X-7389750Y+6420380D02*
X-7358000Y+6450860D01*
X-7358000Y+6359420D01*
X-7278625Y+6435620D02*
X-7262750Y+6450860D01*
X-7215125Y+6450860D01*
X-7199250Y+6435620D01*
X-7199250Y+6420380D01*
X-7215125Y+6405140D01*
X-7262750Y+6405140D01*
X-7278625Y+6389900D01*
X-7278625Y+6359420D01*
X-7199250Y+6359420D01*
X-6973000Y+7282000D02*
X-7100000Y+7282000D01*
X-7608000Y+7218500D02*
X-7100000Y+7218500D01*
X-7100000Y+7345500D01*
X-7608000Y+7345500D01*
X-7608000Y+7218500D01*
X-7608000Y+7282000D02*
X-7735000Y+7282000D01*
X-7544500Y+7086420D02*
X-7544500Y+7177860D01*
X-7465125Y+7177860D01*
X-7449250Y+7162620D01*
X-7449250Y+7147380D01*
X-7465125Y+7132140D01*
X-7544500Y+7132140D01*
X-7465125Y+7132140D02*
X-7449250Y+7116900D01*
X-7449250Y+7086420D01*
X-7385750Y+7147380D02*
X-7354000Y+7177860D01*
X-7354000Y+7086420D01*
X-7274625Y+7162620D02*
X-7258750Y+7177860D01*
X-7211125Y+7177860D01*
X-7195250Y+7162620D01*
X-7195250Y+7147380D01*
X-7211125Y+7132140D01*
X-7195250Y+7116900D01*
X-7195250Y+7101660D01*
X-7211125Y+7086420D01*
X-7258750Y+7086420D01*
X-7274625Y+7101660D01*
X-7242875Y+7132140D02*
X-7211125Y+7132140D01*
X-6973000Y+8136000D02*
X-7100000Y+8136000D01*
X-7608000Y+8072500D02*
X-7100000Y+8072500D01*
X-7100000Y+8199500D01*
X-7608000Y+8199500D01*
X-7608000Y+8072500D01*
X-7608000Y+8136000D02*
X-7735000Y+8136000D01*
X-7544500Y+7940420D02*
X-7544500Y+8031860D01*
X-7465125Y+8031860D01*
X-7449250Y+8016620D01*
X-7449250Y+8001380D01*
X-7465125Y+7986140D01*
X-7544500Y+7986140D01*
X-7465125Y+7986140D02*
X-7449250Y+7970900D01*
X-7449250Y+7940420D01*
X-7385750Y+8001380D02*
X-7354000Y+8031860D01*
X-7354000Y+7940420D01*
X-7195250Y+7970900D02*
X-7290500Y+7970900D01*
X-7227000Y+8031860D01*
X-7227000Y+7940420D01*
X-6973000Y+8736000D02*
X-7100000Y+8736000D01*
X-7608000Y+8672500D02*
X-7100000Y+8672500D01*
X-7100000Y+8799500D01*
X-7608000Y+8799500D01*
X-7608000Y+8672500D01*
X-7608000Y+8736000D02*
X-7735000Y+8736000D01*
X-7544500Y+8540420D02*
X-7544500Y+8631860D01*
X-7465125Y+8631860D01*
X-7449250Y+8616620D01*
X-7449250Y+8601380D01*
X-7465125Y+8586140D01*
X-7544500Y+8586140D01*
X-7465125Y+8586140D02*
X-7449250Y+8570900D01*
X-7449250Y+8540420D01*
X-7385750Y+8601380D02*
X-7354000Y+8631860D01*
X-7354000Y+8540420D01*
X-7195250Y+8631860D02*
X-7274625Y+8631860D01*
X-7274625Y+8601380D01*
X-7211125Y+8601380D01*
X-7195250Y+8586140D01*
X-7195250Y+8555660D01*
X-7211125Y+8540420D01*
X-7258750Y+8540420D01*
X-7274625Y+8555660D01*
X-8477000Y+6090500D02*
X-8477000Y+5709500D01*
X-8350000Y+6141300D02*
X-8373688Y+6139117D01*
X-8396633Y+6133362D01*
X-8437312Y+6115900D01*
X-8477000Y+6090500D01*
X-8350000Y+6141300D02*
X-8298065Y+6140438D01*
X-8250037Y+6129046D01*
X-8206846Y+6108204D01*
X-8169422Y+6078991D01*
X-8138695Y+6042484D01*
X-8115596Y+5999764D01*
X-8101054Y+5951910D01*
X-8096000Y+5900000D01*
X-8350000Y+5658700D02*
X-8373688Y+5660883D01*
X-8396633Y+5666638D01*
X-8437312Y+5684100D01*
X-8477000Y+5709500D01*
X-8350000Y+5658700D02*
X-8298065Y+5659562D01*
X-8250037Y+5670954D01*
X-8206846Y+5691796D01*
X-8169422Y+5721009D01*
X-8138695Y+5757516D01*
X-8115596Y+5800236D01*
X-8101054Y+5848090D01*
X-8096000Y+5900000D01*
X-8024880Y+5773000D02*
X-8055360Y+5804750D01*
X-8055360Y+5836500D01*
X-8024880Y+5868250D01*
X-7994400Y+5868250D01*
X-7963920Y+5836500D01*
X-7963920Y+5804750D01*
X-7994400Y+5773000D01*
X-8024880Y+5773000D01*
X-7994400Y+5836500D02*
X-7963920Y+5868250D01*
X-8024880Y+5931750D02*
X-8055360Y+5963500D01*
X-7963920Y+5963500D01*
X-8477000Y+6745500D02*
X-8477000Y+6364500D01*
X-8350000Y+6796300D02*
X-8373688Y+6794117D01*
X-8396633Y+6788362D01*
X-8437312Y+6770900D01*
X-8477000Y+6745500D01*
X-8350000Y+6796300D02*
X-8298065Y+6795438D01*
X-8250037Y+6784046D01*
X-8206846Y+6763204D01*
X-8169422Y+6733991D01*
X-8138695Y+6697484D01*
X-8115596Y+6654764D01*
X-8101054Y+6606910D01*
X-8096000Y+6555000D01*
X-8350000Y+6313700D02*
X-8373688Y+6315883D01*
X-8396633Y+6321638D01*
X-8437312Y+6339100D01*
X-8477000Y+6364500D01*
X-8350000Y+6313700D02*
X-8298065Y+6314562D01*
X-8250037Y+6325954D01*
X-8206846Y+6346796D01*
X-8169422Y+6376009D01*
X-8138695Y+6412516D01*
X-8115596Y+6455236D01*
X-8101054Y+6503090D01*
X-8096000Y+6555000D01*
X-8024880Y+6428000D02*
X-8055360Y+6459750D01*
X-8055360Y+6491500D01*
X-8024880Y+6523250D01*
X-7994400Y+6523250D01*
X-7963920Y+6491500D01*
X-7963920Y+6459750D01*
X-7994400Y+6428000D01*
X-8024880Y+6428000D01*
X-7994400Y+6491500D02*
X-7963920Y+6523250D01*
X-8040120Y+6570875D02*
X-8055360Y+6586750D01*
X-8055360Y+6634375D01*
X-8040120Y+6650250D01*
X-8024880Y+6650250D01*
X-8009640Y+6634375D01*
X-8009640Y+6586750D01*
X-7994400Y+6570875D01*
X-7963920Y+6570875D01*
X-7963920Y+6650250D01*
X-8473000Y+7472500D02*
X-8473000Y+7091500D01*
X-8346000Y+7523300D02*
X-8369688Y+7521117D01*
X-8392633Y+7515362D01*
X-8433312Y+7497900D01*
X-8473000Y+7472500D01*
X-8346000Y+7523300D02*
X-8294065Y+7522438D01*
X-8246037Y+7511046D01*
X-8202846Y+7490204D01*
X-8165422Y+7460991D01*
X-8134695Y+7424484D01*
X-8111596Y+7381764D01*
X-8097054Y+7333910D01*
X-8092000Y+7282000D01*
X-8346000Y+7040700D02*
X-8369688Y+7042883D01*
X-8392633Y+7048638D01*
X-8433312Y+7066100D01*
X-8473000Y+7091500D01*
X-8346000Y+7040700D02*
X-8294065Y+7041562D01*
X-8246037Y+7052954D01*
X-8202846Y+7073796D01*
X-8165422Y+7103009D01*
X-8134695Y+7139516D01*
X-8111596Y+7182236D01*
X-8097054Y+7230090D01*
X-8092000Y+7282000D01*
X-8020880Y+7155000D02*
X-8051360Y+7186750D01*
X-8051360Y+7218500D01*
X-8020880Y+7250250D01*
X-7990400Y+7250250D01*
X-7959920Y+7218500D01*
X-7959920Y+7186750D01*
X-7990400Y+7155000D01*
X-8020880Y+7155000D01*
X-7990400Y+7218500D02*
X-7959920Y+7250250D01*
X-8036120Y+7297875D02*
X-8051360Y+7313750D01*
X-8051360Y+7361375D01*
X-8036120Y+7377250D01*
X-8020880Y+7377250D01*
X-8005640Y+7361375D01*
X-7990400Y+7377250D01*
X-7975160Y+7377250D01*
X-7959920Y+7361375D01*
X-7959920Y+7313750D01*
X-7975160Y+7297875D01*
X-8005640Y+7329625D02*
X-8005640Y+7361375D01*
X-8473000Y+8199500D02*
X-8473000Y+7818500D01*
X-8346000Y+8250300D02*
X-8369688Y+8248117D01*
X-8392633Y+8242362D01*
X-8433312Y+8224900D01*
X-8473000Y+8199500D01*
X-8346000Y+8250300D02*
X-8294065Y+8249438D01*
X-8246037Y+8238046D01*
X-8202846Y+8217204D01*
X-8165422Y+8187991D01*
X-8134695Y+8151484D01*
X-8111596Y+8108764D01*
X-8097054Y+8060910D01*
X-8092000Y+8009000D01*
X-8346000Y+7767700D02*
X-8369688Y+7769883D01*
X-8392633Y+7775638D01*
X-8433312Y+7793100D01*
X-8473000Y+7818500D01*
X-8346000Y+7767700D02*
X-8294065Y+7768562D01*
X-8246037Y+7779954D01*
X-8202846Y+7800796D01*
X-8165422Y+7830009D01*
X-8134695Y+7866516D01*
X-8111596Y+7909236D01*
X-8097054Y+7957090D01*
X-8092000Y+8009000D01*
X-8020880Y+7882000D02*
X-8051360Y+7913750D01*
X-8051360Y+7945500D01*
X-8020880Y+7977250D01*
X-7990400Y+7977250D01*
X-7959920Y+7945500D01*
X-7959920Y+7913750D01*
X-7990400Y+7882000D01*
X-8020880Y+7882000D01*
X-7990400Y+7945500D02*
X-7959920Y+7977250D01*
X-7990400Y+8104250D02*
X-7990400Y+8009000D01*
X-8051360Y+8072500D01*
X-7959920Y+8072500D01*
X-8473000Y+8926500D02*
X-8473000Y+8545500D01*
X-8346000Y+8977300D02*
X-8369688Y+8975117D01*
X-8392633Y+8969362D01*
X-8433312Y+8951900D01*
X-8473000Y+8926500D01*
X-8346000Y+8977300D02*
X-8294065Y+8976438D01*
X-8246037Y+8965046D01*
X-8202846Y+8944204D01*
X-8165422Y+8914991D01*
X-8134695Y+8878484D01*
X-8111596Y+8835764D01*
X-8097054Y+8787910D01*
X-8092000Y+8736000D01*
X-8346000Y+8494700D02*
X-8369688Y+8496883D01*
X-8392633Y+8502638D01*
X-8433312Y+8520100D01*
X-8473000Y+8545500D01*
X-8346000Y+8494700D02*
X-8294065Y+8495562D01*
X-8246037Y+8506954D01*
X-8202846Y+8527796D01*
X-8165422Y+8557009D01*
X-8134695Y+8593516D01*
X-8111596Y+8636236D01*
X-8097054Y+8684090D01*
X-8092000Y+8736000D01*
X-8020880Y+8609000D02*
X-8051360Y+8640750D01*
X-8051360Y+8672500D01*
X-8020880Y+8704250D01*
X-7990400Y+8704250D01*
X-7959920Y+8672500D01*
X-7959920Y+8640750D01*
X-7990400Y+8609000D01*
X-8020880Y+8609000D01*
X-7990400Y+8672500D02*
X-7959920Y+8704250D01*
X-8051360Y+8831250D02*
X-8051360Y+8751875D01*
X-8020880Y+8751875D01*
X-8020880Y+8815375D01*
X-8005640Y+8831250D01*
X-7975160Y+8831250D01*
X-7959920Y+8815375D01*
X-7959920Y+8767750D01*
X-7975160Y+8751875D01*
X-6223000Y+8255000D02*
X-5969000Y+8255000D01*
X-5969000Y+8763000D01*
X-6223000Y+8763000D01*
X-6223000Y+8255000D01*
X-5867400Y+8382000D02*
X-5852160Y+8382000D01*
X-5836920Y+8397875D01*
X-5836920Y+8461375D01*
X-5852160Y+8477250D01*
X-5928360Y+8477250D01*
X-5882640Y+8540750D02*
X-5897880Y+8524875D01*
X-5913120Y+8524875D01*
X-5928360Y+8540750D01*
X-5928360Y+8588375D01*
X-5913120Y+8604250D01*
X-5897880Y+8604250D01*
X-5882640Y+8588375D01*
X-5882640Y+8540750D01*
X-5867400Y+8524875D01*
X-5852160Y+8524875D01*
X-5836920Y+8540750D01*
X-5836920Y+8588375D01*
X-5852160Y+8604250D01*
X-5867400Y+8604250D01*
X-5882640Y+8588375D01*
X-5600000Y+7828000D02*
X-5600000Y+7701000D01*
X-5663500Y+7193000D02*
X-5536500Y+7193000D01*
X-5536500Y+7701000D01*
X-5663500Y+7701000D01*
X-5663500Y+7193000D01*
X-5600000Y+7193000D02*
X-5600000Y+7066000D01*
X-5404420Y+7256500D02*
X-5495860Y+7256500D01*
X-5495860Y+7335875D01*
X-5480620Y+7351750D01*
X-5465380Y+7351750D01*
X-5450140Y+7335875D01*
X-5450140Y+7256500D01*
X-5450140Y+7335875D02*
X-5434900Y+7351750D01*
X-5404420Y+7351750D01*
X-5465380Y+7415250D02*
X-5495860Y+7447000D01*
X-5404420Y+7447000D01*
X-5480620Y+7605750D02*
X-5495860Y+7589875D01*
X-5495860Y+7542250D01*
X-5480620Y+7526375D01*
X-5419660Y+7526375D01*
X-5404420Y+7542250D01*
X-5404420Y+7589875D01*
X-5419660Y+7605750D01*
X-5434900Y+7605750D01*
X-5450140Y+7589875D01*
X-5450140Y+7526375D01*
X-9327000Y+8092000D02*
X-9073000Y+8092000D01*
X-9073000Y+8854000D01*
X-9327000Y+8854000D01*
X-9327000Y+8092000D01*
X-9398120Y+8346000D02*
X-9382880Y+8346000D01*
X-9367640Y+8361875D01*
X-9367640Y+8425375D01*
X-9382880Y+8441250D01*
X-9459080Y+8441250D01*
X-9459080Y+8488875D02*
X-9459080Y+8568250D01*
X-9443840Y+8568250D01*
X-9367640Y+8488875D01*
X-7673000Y+5300000D02*
X-7546000Y+5300000D01*
X-7546000Y+5236500D02*
X-7038000Y+5236500D01*
X-7038000Y+5363500D01*
X-7546000Y+5363500D01*
X-7546000Y+5236500D01*
X-7038000Y+5300000D02*
X-6911000Y+5300000D01*
X-7482500Y+5404140D02*
X-7482500Y+5495580D01*
X-7403125Y+5495580D01*
X-7387250Y+5480340D01*
X-7387250Y+5465100D01*
X-7403125Y+5449860D01*
X-7482500Y+5449860D01*
X-7403125Y+5449860D02*
X-7387250Y+5434620D01*
X-7387250Y+5404140D01*
X-7323750Y+5465100D02*
X-7292000Y+5495580D01*
X-7292000Y+5404140D01*
X-7212625Y+5495580D02*
X-7133250Y+5495580D01*
X-7133250Y+5480340D01*
X-7212625Y+5404140D01*
X-7227000Y+10465000D02*
X-6973000Y+10465000D01*
X-6973000Y+11227000D01*
X-7227000Y+11227000D01*
X-7227000Y+10465000D01*
X-6840920Y+10719000D02*
X-6932360Y+10719000D01*
X-6886640Y+10766625D01*
X-6932360Y+10814250D01*
X-6840920Y+10814250D01*
X-6901880Y+10877750D02*
X-6932360Y+10909500D01*
X-6840920Y+10909500D01*
X-2697000Y+409500D02*
X-1173000Y+409500D01*
X-1173000Y+790500D01*
X-2697000Y+790500D01*
X-2697000Y+409500D01*
X-2125500Y+307900D02*
X-2125500Y+292660D01*
X-2109625Y+277420D01*
X-2046125Y+277420D01*
X-2030250Y+292660D01*
X-2030250Y+368860D01*
X-1966750Y+338380D02*
X-1935000Y+368860D01*
X-1935000Y+277420D01*
X-1776250Y+307900D02*
X-1871500Y+307900D01*
X-1808000Y+368860D01*
X-1808000Y+277420D01*
M02*
