G04 PROTEUS GERBER X2 FILE*
%TF.GenerationSoftware,Labcenter,Proteus,8.8-SP1-Build27031*%
%TF.CreationDate,2021-08-02T14:58:59+00:00*%
%TF.FileFunction,AssemblyDrawing,Top*%
%TF.FilePolarity,Positive*%
%TF.Part,Single*%
%TF.SameCoordinates,{c3ce3005-f07b-4d42-96ea-8d11783d6a5d}*%
%FSLAX45Y45*%
%MOMM*%
G01*
%TA.AperFunction,Profile*%
%ADD21C,0.203200*%
%TA.AperFunction,Material*%
%ADD22C,0.203200*%
%ADD34C,0.294640*%
%ADD35C,0.545590*%
%ADD36C,0.514770*%
%ADD37C,0.621790*%
%ADD38C,0.164590*%
%ADD39C,0.227330*%
%ADD40C,0.106680*%
%ADD41C,0.345440*%
%ADD42C,0.240790*%
%ADD43C,0.075470*%
%ADD44C,0.129540*%
%ADD45C,0.172210*%
%ADD46C,0.068580*%
%ADD47C,0.132080*%
%ADD48C,0.258330*%
%ADD49C,0.176100*%
%TD.AperFunction*%
D21*
X-12754000Y-52000D02*
X-754000Y-52000D01*
X-754000Y+11948000D01*
X-12754000Y+11948000D01*
X-12754000Y-52000D01*
D22*
X-5401000Y+1912840D02*
X-3623000Y+1912840D01*
X-3623000Y+5743160D01*
X-5401000Y+5743160D01*
X-5401000Y+1912840D01*
D34*
X-4423608Y+2413728D02*
X-4541464Y+2413728D01*
X-4600392Y+2472656D01*
X-4600392Y+2531584D01*
X-4541464Y+2590512D01*
X-4423608Y+2590512D01*
X-4482536Y+2413728D02*
X-4482536Y+2590512D01*
X-4423608Y+2649440D02*
X-4600392Y+2649440D01*
X-4600392Y+2796760D01*
X-4570928Y+2826224D01*
X-4541464Y+2826224D01*
X-4512000Y+2796760D01*
X-4512000Y+2649440D01*
X-4512000Y+2796760D02*
X-4482536Y+2826224D01*
X-4423608Y+2826224D01*
X-4423608Y+2885152D02*
X-4600392Y+2885152D01*
X-4600392Y+3003008D01*
X-4541464Y+3061936D01*
X-4482536Y+3061936D01*
X-4423608Y+3003008D01*
X-4423608Y+2885152D01*
X-4600392Y+3120864D02*
X-4453072Y+3120864D01*
X-4423608Y+3150328D01*
X-4423608Y+3268184D01*
X-4453072Y+3297648D01*
X-4600392Y+3297648D01*
X-4600392Y+3386040D02*
X-4600392Y+3503896D01*
X-4600392Y+3444968D02*
X-4423608Y+3444968D01*
X-4423608Y+3386040D02*
X-4423608Y+3503896D01*
X-4423608Y+3592288D02*
X-4600392Y+3592288D01*
X-4423608Y+3769072D01*
X-4600392Y+3769072D01*
X-4541464Y+3828000D02*
X-4600392Y+3886928D01*
X-4600392Y+3945856D01*
X-4541464Y+4004784D01*
X-4482536Y+4004784D01*
X-4423608Y+3945856D01*
X-4423608Y+3886928D01*
X-4482536Y+3828000D01*
X-4541464Y+3828000D01*
X-4423608Y+4299424D02*
X-4600392Y+4299424D01*
X-4423608Y+4476208D01*
X-4600392Y+4476208D01*
X-4423608Y+4535136D02*
X-4541464Y+4535136D01*
X-4600392Y+4594064D01*
X-4600392Y+4652992D01*
X-4541464Y+4711920D01*
X-4423608Y+4711920D01*
X-4482536Y+4535136D02*
X-4482536Y+4711920D01*
X-4423608Y+4770848D02*
X-4600392Y+4770848D01*
X-4423608Y+4947632D01*
X-4600392Y+4947632D01*
X-4541464Y+5006560D02*
X-4600392Y+5065488D01*
X-4600392Y+5124416D01*
X-4541464Y+5183344D01*
X-4482536Y+5183344D01*
X-4423608Y+5124416D01*
X-4423608Y+5065488D01*
X-4482536Y+5006560D01*
X-4541464Y+5006560D01*
D22*
X-1887160Y+8862840D02*
X-977840Y+8862840D01*
X-977840Y+11423160D01*
X-1887160Y+11423160D01*
X-1887160Y+8862840D01*
D35*
X-1596177Y+9706527D02*
X-1323381Y+9706527D01*
X-1268822Y+9761086D01*
X-1268822Y+9979322D01*
X-1323381Y+10033881D01*
X-1596177Y+10033881D01*
X-1541618Y+10197559D02*
X-1596177Y+10252118D01*
X-1596177Y+10415795D01*
X-1541618Y+10470354D01*
X-1487059Y+10470354D01*
X-1432500Y+10415795D01*
X-1432500Y+10252118D01*
X-1377940Y+10197559D01*
X-1268822Y+10197559D01*
X-1268822Y+10470354D01*
D22*
X-6637160Y+10362840D02*
X-5092840Y+10362840D01*
X-5092840Y+11526160D01*
X-6637160Y+11526160D01*
X-6637160Y+10362840D01*
D36*
X-6276818Y+10841545D02*
X-6225341Y+10790068D01*
X-6019432Y+10790068D01*
X-5967955Y+10841545D01*
X-5967955Y+10893023D01*
X-6019432Y+10944500D01*
X-6225341Y+10944500D01*
X-6276818Y+10995977D01*
X-6276818Y+11047455D01*
X-6225341Y+11098932D01*
X-6019432Y+11098932D01*
X-5967955Y+11047455D01*
X-5813523Y+11047455D02*
X-5762046Y+11098932D01*
X-5607614Y+11098932D01*
X-5556137Y+11047455D01*
X-5556137Y+10995977D01*
X-5607614Y+10944500D01*
X-5762046Y+10944500D01*
X-5813523Y+10893023D01*
X-5813523Y+10790068D01*
X-5556137Y+10790068D01*
D22*
X-4649160Y+10362840D02*
X-3612840Y+10362840D01*
X-3612840Y+11653160D01*
X-4649160Y+11653160D01*
X-4649160Y+10362840D01*
D37*
X-3944462Y+10759284D02*
X-4317537Y+10759284D01*
X-4317537Y+11070179D01*
X-4255358Y+11132358D01*
X-4193179Y+11132358D01*
X-4131000Y+11070179D01*
X-4131000Y+10759284D01*
D22*
X-2637160Y+10350840D02*
X-2362840Y+10350840D01*
X-2362840Y+11387160D01*
X-2637160Y+11387160D01*
X-2637160Y+10350840D01*
D38*
X-2483540Y+10737327D02*
X-2467081Y+10737327D01*
X-2450622Y+10753786D01*
X-2450622Y+10819622D01*
X-2467081Y+10836081D01*
X-2549377Y+10836081D01*
X-2483540Y+10967754D02*
X-2483540Y+10869000D01*
X-2549377Y+10934836D01*
X-2450622Y+10934836D01*
D22*
X-3200660Y+10295340D02*
X-2799340Y+10295340D01*
X-2799340Y+11204660D01*
X-3200660Y+11204660D01*
X-3200660Y+10295340D01*
D39*
X-2931801Y+10477204D02*
X-3068199Y+10477204D01*
X-3068199Y+10590869D01*
X-3045466Y+10613602D01*
X-3022733Y+10613602D01*
X-3000000Y+10590869D01*
X-3000000Y+10477204D01*
X-3000000Y+10590869D02*
X-2977267Y+10613602D01*
X-2931801Y+10613602D01*
X-3068199Y+10659068D02*
X-3000000Y+10659068D01*
X-2931801Y+10727267D01*
X-3000000Y+10795466D01*
X-3068199Y+10795466D01*
X-3022733Y+10886398D02*
X-3068199Y+10931864D01*
X-2931801Y+10931864D01*
D22*
X-2296160Y+5162840D02*
X-2021840Y+5162840D01*
X-2021840Y+6199160D01*
X-2296160Y+6199160D01*
X-2296160Y+5162840D01*
D38*
X-2142540Y+5549327D02*
X-2126081Y+5549327D01*
X-2109622Y+5565786D01*
X-2109622Y+5631622D01*
X-2126081Y+5648081D01*
X-2208377Y+5648081D01*
X-2175459Y+5713918D02*
X-2208377Y+5746836D01*
X-2109622Y+5746836D01*
D22*
X-2296160Y+6354840D02*
X-2021840Y+6354840D01*
X-2021840Y+7391160D01*
X-2296160Y+7391160D01*
X-2296160Y+6354840D01*
D38*
X-2142540Y+6741327D02*
X-2126081Y+6741327D01*
X-2109622Y+6757786D01*
X-2109622Y+6823622D01*
X-2126081Y+6840081D01*
X-2208377Y+6840081D01*
X-2191918Y+6889459D02*
X-2208377Y+6905918D01*
X-2208377Y+6955295D01*
X-2191918Y+6971754D01*
X-2175459Y+6971754D01*
X-2159000Y+6955295D01*
X-2159000Y+6905918D01*
X-2142540Y+6889459D01*
X-2109622Y+6889459D01*
X-2109622Y+6971754D01*
D22*
X-2296160Y+7862840D02*
X-2021840Y+7862840D01*
X-2021840Y+8899160D01*
X-2296160Y+8899160D01*
X-2296160Y+7862840D01*
D38*
X-2142540Y+8249327D02*
X-2126081Y+8249327D01*
X-2109622Y+8265786D01*
X-2109622Y+8331622D01*
X-2126081Y+8348081D01*
X-2208377Y+8348081D01*
X-2191918Y+8397459D02*
X-2208377Y+8413918D01*
X-2208377Y+8463295D01*
X-2191918Y+8479754D01*
X-2175459Y+8479754D01*
X-2159000Y+8463295D01*
X-2142540Y+8479754D01*
X-2126081Y+8479754D01*
X-2109622Y+8463295D01*
X-2109622Y+8413918D01*
X-2126081Y+8397459D01*
X-2159000Y+8430377D02*
X-2159000Y+8463295D01*
D22*
X-2497900Y+2461100D02*
X-2320100Y+2461100D01*
X-2320100Y+3654900D01*
X-2497900Y+3654900D01*
X-2497900Y+2461100D01*
D40*
X-2376996Y+2929984D02*
X-2441004Y+2929984D01*
X-2441004Y+2983324D01*
X-2430336Y+2993992D01*
X-2419668Y+2993992D01*
X-2409000Y+2983324D01*
X-2409000Y+2929984D01*
X-2409000Y+2983324D02*
X-2398332Y+2993992D01*
X-2376996Y+2993992D01*
X-2419668Y+3036664D02*
X-2441004Y+3058000D01*
X-2376996Y+3058000D01*
X-2387664Y+3100672D02*
X-2430336Y+3100672D01*
X-2441004Y+3111340D01*
X-2441004Y+3154012D01*
X-2430336Y+3164680D01*
X-2387664Y+3164680D01*
X-2376996Y+3154012D01*
X-2376996Y+3111340D01*
X-2387664Y+3100672D01*
X-2376996Y+3100672D02*
X-2441004Y+3164680D01*
D22*
X-1997900Y+2461100D02*
X-1820100Y+2461100D01*
X-1820100Y+3654900D01*
X-1997900Y+3654900D01*
X-1997900Y+2461100D01*
D40*
X-1876996Y+2929984D02*
X-1941004Y+2929984D01*
X-1941004Y+2983324D01*
X-1930336Y+2993992D01*
X-1919668Y+2993992D01*
X-1909000Y+2983324D01*
X-1909000Y+2929984D01*
X-1909000Y+2983324D02*
X-1898332Y+2993992D01*
X-1876996Y+2993992D01*
X-1919668Y+3036664D02*
X-1941004Y+3058000D01*
X-1876996Y+3058000D01*
X-1919668Y+3122008D02*
X-1941004Y+3143344D01*
X-1876996Y+3143344D01*
D22*
X-3387160Y+2662840D02*
X-3112840Y+2662840D01*
X-3112840Y+3699160D01*
X-3387160Y+3699160D01*
X-3387160Y+2662840D01*
D38*
X-3233540Y+3049327D02*
X-3217081Y+3049327D01*
X-3200622Y+3065786D01*
X-3200622Y+3131622D01*
X-3217081Y+3148081D01*
X-3299377Y+3148081D01*
X-3266459Y+3279754D02*
X-3250000Y+3263295D01*
X-3250000Y+3213918D01*
X-3266459Y+3197459D01*
X-3282918Y+3197459D01*
X-3299377Y+3213918D01*
X-3299377Y+3263295D01*
X-3282918Y+3279754D01*
X-3217081Y+3279754D01*
X-3200622Y+3263295D01*
X-3200622Y+3213918D01*
D22*
X-10649160Y+3424500D02*
X-9612840Y+3424500D01*
X-9612840Y+4313500D01*
X-10649160Y+4313500D01*
X-10649160Y+3424500D01*
D41*
X-10407352Y+3972632D02*
X-10407352Y+3799912D01*
X-10372808Y+3765368D01*
X-10234632Y+3765368D01*
X-10200088Y+3799912D01*
X-10200088Y+3972632D01*
X-10061912Y+3903544D02*
X-9992824Y+3972632D01*
X-9992824Y+3765368D01*
D22*
X-11391160Y+485840D02*
X-10608840Y+485840D01*
X-10608840Y+887160D01*
X-11391160Y+887160D01*
X-11391160Y+485840D01*
D42*
X-11192633Y+758737D02*
X-11192633Y+638341D01*
X-11168554Y+614262D01*
X-11072238Y+614262D01*
X-11048159Y+638341D01*
X-11048159Y+758737D01*
X-10975921Y+734658D02*
X-10951842Y+758737D01*
X-10879605Y+758737D01*
X-10855526Y+734658D01*
X-10855526Y+710579D01*
X-10879605Y+686500D01*
X-10855526Y+662420D01*
X-10855526Y+638341D01*
X-10879605Y+614262D01*
X-10951842Y+614262D01*
X-10975921Y+638341D01*
X-10927763Y+686500D02*
X-10879605Y+686500D01*
D22*
X-10141160Y+485840D02*
X-9358840Y+485840D01*
X-9358840Y+887160D01*
X-10141160Y+887160D01*
X-10141160Y+485840D01*
D42*
X-9942633Y+758737D02*
X-9942633Y+638341D01*
X-9918554Y+614262D01*
X-9822238Y+614262D01*
X-9798159Y+638341D01*
X-9798159Y+758737D01*
X-9605526Y+662420D02*
X-9750000Y+662420D01*
X-9653684Y+758737D01*
X-9653684Y+614262D01*
D22*
X-10637160Y+1362840D02*
X-10362840Y+1362840D01*
X-10362840Y+1891160D01*
X-10637160Y+1891160D01*
X-10637160Y+1362840D01*
D38*
X-10467081Y+1594081D02*
X-10450622Y+1577622D01*
X-10450622Y+1528245D01*
X-10483540Y+1495327D01*
X-10516459Y+1495327D01*
X-10549377Y+1528245D01*
X-10549377Y+1577622D01*
X-10532918Y+1594081D01*
X-10532918Y+1643459D02*
X-10549377Y+1659918D01*
X-10549377Y+1709295D01*
X-10532918Y+1725754D01*
X-10516459Y+1725754D01*
X-10500000Y+1709295D01*
X-10483540Y+1725754D01*
X-10467081Y+1725754D01*
X-10450622Y+1709295D01*
X-10450622Y+1659918D01*
X-10467081Y+1643459D01*
X-10500000Y+1676377D02*
X-10500000Y+1709295D01*
D22*
X-10137160Y+1362840D02*
X-9862840Y+1362840D01*
X-9862840Y+1891160D01*
X-10137160Y+1891160D01*
X-10137160Y+1362840D01*
D38*
X-9967081Y+1594081D02*
X-9950622Y+1577622D01*
X-9950622Y+1528245D01*
X-9983540Y+1495327D01*
X-10016459Y+1495327D01*
X-10049377Y+1528245D01*
X-10049377Y+1577622D01*
X-10032918Y+1594081D01*
X-9983540Y+1725754D02*
X-9983540Y+1627000D01*
X-10049377Y+1692836D01*
X-9950622Y+1692836D01*
D22*
X-11387160Y+1362840D02*
X-11112840Y+1362840D01*
X-11112840Y+1891160D01*
X-11387160Y+1891160D01*
X-11387160Y+1362840D01*
D38*
X-11217081Y+1594081D02*
X-11200622Y+1577622D01*
X-11200622Y+1528245D01*
X-11233540Y+1495327D01*
X-11266459Y+1495327D01*
X-11299377Y+1528245D01*
X-11299377Y+1577622D01*
X-11282918Y+1594081D01*
X-11299377Y+1725754D02*
X-11299377Y+1643459D01*
X-11266459Y+1643459D01*
X-11266459Y+1709295D01*
X-11250000Y+1725754D01*
X-11217081Y+1725754D01*
X-11200622Y+1709295D01*
X-11200622Y+1659918D01*
X-11217081Y+1643459D01*
D22*
X-12137160Y+1358840D02*
X-11862840Y+1358840D01*
X-11862840Y+1887160D01*
X-12137160Y+1887160D01*
X-12137160Y+1358840D01*
D43*
X-12022642Y+1449410D02*
X-12022642Y+1479599D01*
X-12022642Y+1464505D02*
X-11977357Y+1464505D01*
X-11977357Y+1449410D02*
X-11977357Y+1479599D01*
X-11977357Y+1502242D02*
X-12022642Y+1502242D01*
X-11977357Y+1547526D01*
X-12022642Y+1547526D01*
X-11969810Y+1562621D02*
X-11969810Y+1607905D01*
X-11977357Y+1623000D02*
X-12022642Y+1623000D01*
X-12022642Y+1660736D01*
X-12015094Y+1668284D01*
X-12007547Y+1668284D01*
X-12000000Y+1660736D01*
X-12000000Y+1623000D01*
X-12000000Y+1660736D02*
X-11992452Y+1668284D01*
X-11977357Y+1668284D01*
X-11977357Y+1728663D02*
X-11977357Y+1683379D01*
X-12022642Y+1683379D01*
X-12022642Y+1728663D01*
X-12000000Y+1683379D02*
X-12000000Y+1713568D01*
X-11992452Y+1773947D02*
X-11992452Y+1789042D01*
X-11977357Y+1789042D01*
X-11977357Y+1758852D01*
X-11992452Y+1743758D01*
X-12007547Y+1743758D01*
X-12022642Y+1758852D01*
X-12022642Y+1781494D01*
X-12015094Y+1789042D01*
D22*
X-9387160Y+1362840D02*
X-9112840Y+1362840D01*
X-9112840Y+1891160D01*
X-9387160Y+1891160D01*
X-9387160Y+1362840D01*
D38*
X-9217081Y+1594081D02*
X-9200622Y+1577622D01*
X-9200622Y+1528245D01*
X-9233540Y+1495327D01*
X-9266459Y+1495327D01*
X-9299377Y+1528245D01*
X-9299377Y+1577622D01*
X-9282918Y+1594081D01*
X-9282918Y+1725754D02*
X-9299377Y+1709295D01*
X-9299377Y+1659918D01*
X-9282918Y+1643459D01*
X-9217081Y+1643459D01*
X-9200622Y+1659918D01*
X-9200622Y+1709295D01*
X-9217081Y+1725754D01*
X-9233540Y+1725754D01*
X-9250000Y+1709295D01*
X-9250000Y+1643459D01*
D22*
X-8772160Y+358840D02*
X-7735840Y+358840D01*
X-7735840Y+1014160D01*
X-8772160Y+1014160D01*
X-8772160Y+358840D01*
D44*
X-8616712Y+699454D02*
X-8590804Y+725362D01*
X-8564896Y+725362D01*
X-8538988Y+699454D01*
X-8538988Y+673546D01*
X-8564896Y+647638D01*
X-8590804Y+647638D01*
X-8616712Y+673546D01*
X-8616712Y+699454D01*
X-8513080Y+725362D02*
X-8513080Y+660592D01*
X-8500126Y+647638D01*
X-8448310Y+647638D01*
X-8435356Y+660592D01*
X-8435356Y+725362D01*
X-8409448Y+725362D02*
X-8331724Y+725362D01*
X-8370586Y+725362D02*
X-8370586Y+647638D01*
X-8305816Y+634684D02*
X-8228092Y+634684D01*
X-8202184Y+647638D02*
X-8202184Y+725362D01*
X-8137414Y+725362D01*
X-8124460Y+712408D01*
X-8124460Y+699454D01*
X-8137414Y+686500D01*
X-8202184Y+686500D01*
X-8137414Y+686500D02*
X-8124460Y+673546D01*
X-8124460Y+647638D01*
X-8020828Y+647638D02*
X-8098552Y+647638D01*
X-8098552Y+725362D01*
X-8020828Y+725362D01*
X-8098552Y+686500D02*
X-8046736Y+686500D01*
X-7943104Y+673546D02*
X-7917196Y+673546D01*
X-7917196Y+647638D01*
X-7969012Y+647638D01*
X-7994920Y+673546D01*
X-7994920Y+699454D01*
X-7969012Y+725362D01*
X-7930150Y+725362D01*
X-7917196Y+712408D01*
D22*
X-10604900Y+2411100D02*
X-9411100Y+2411100D01*
X-9411100Y+2588900D01*
X-10604900Y+2588900D01*
X-10604900Y+2411100D01*
D40*
X-10093344Y+2467996D02*
X-10093344Y+2532004D01*
X-10040004Y+2532004D01*
X-10029336Y+2521336D01*
X-10029336Y+2510668D01*
X-10040004Y+2500000D01*
X-10093344Y+2500000D01*
X-10040004Y+2500000D02*
X-10029336Y+2489332D01*
X-10029336Y+2467996D01*
X-9986664Y+2510668D02*
X-9965328Y+2532004D01*
X-9965328Y+2467996D01*
D22*
X-11338900Y+2395100D02*
X-11161100Y+2395100D01*
X-11161100Y+3588900D01*
X-11338900Y+3588900D01*
X-11338900Y+2395100D01*
D40*
X-11217996Y+2906656D02*
X-11282004Y+2906656D01*
X-11282004Y+2959996D01*
X-11271336Y+2970664D01*
X-11260668Y+2970664D01*
X-11250000Y+2959996D01*
X-11250000Y+2906656D01*
X-11250000Y+2959996D02*
X-11239332Y+2970664D01*
X-11217996Y+2970664D01*
X-11271336Y+3002668D02*
X-11282004Y+3013336D01*
X-11282004Y+3045340D01*
X-11271336Y+3056008D01*
X-11260668Y+3056008D01*
X-11250000Y+3045340D01*
X-11250000Y+3013336D01*
X-11239332Y+3002668D01*
X-11217996Y+3002668D01*
X-11217996Y+3056008D01*
D22*
X-9088900Y+2395100D02*
X-8911100Y+2395100D01*
X-8911100Y+3588900D01*
X-9088900Y+3588900D01*
X-9088900Y+2395100D01*
D40*
X-8967996Y+2906656D02*
X-9032004Y+2906656D01*
X-9032004Y+2959996D01*
X-9021336Y+2970664D01*
X-9010668Y+2970664D01*
X-9000000Y+2959996D01*
X-9000000Y+2906656D01*
X-9000000Y+2959996D02*
X-8989332Y+2970664D01*
X-8967996Y+2970664D01*
X-9021336Y+3002668D02*
X-9032004Y+3013336D01*
X-9032004Y+3045340D01*
X-9021336Y+3056008D01*
X-9010668Y+3056008D01*
X-9000000Y+3045340D01*
X-8989332Y+3056008D01*
X-8978664Y+3056008D01*
X-8967996Y+3045340D01*
X-8967996Y+3013336D01*
X-8978664Y+3002668D01*
X-9000000Y+3024004D02*
X-9000000Y+3045340D01*
D22*
X-8137160Y+2354840D02*
X-7862840Y+2354840D01*
X-7862840Y+3137160D01*
X-8137160Y+3137160D01*
X-8137160Y+2354840D01*
D38*
X-7967081Y+2713081D02*
X-7950622Y+2696622D01*
X-7950622Y+2647245D01*
X-7983540Y+2614327D01*
X-8016459Y+2614327D01*
X-8049377Y+2647245D01*
X-8049377Y+2696622D01*
X-8032918Y+2713081D01*
X-8016459Y+2778918D02*
X-8049377Y+2811836D01*
X-7950622Y+2811836D01*
D22*
X-8088900Y+3395100D02*
X-7911100Y+3395100D01*
X-7911100Y+4588900D01*
X-8088900Y+4588900D01*
X-8088900Y+3395100D01*
D40*
X-7967996Y+3906656D02*
X-8032004Y+3906656D01*
X-8032004Y+3959996D01*
X-8021336Y+3970664D01*
X-8010668Y+3970664D01*
X-8000000Y+3959996D01*
X-8000000Y+3906656D01*
X-8000000Y+3959996D02*
X-7989332Y+3970664D01*
X-7967996Y+3970664D01*
X-8010668Y+4056008D02*
X-8000000Y+4045340D01*
X-8000000Y+4013336D01*
X-8010668Y+4002668D01*
X-8021336Y+4002668D01*
X-8032004Y+4013336D01*
X-8032004Y+4045340D01*
X-8021336Y+4056008D01*
X-7978664Y+4056008D01*
X-7967996Y+4045340D01*
X-7967996Y+4013336D01*
D22*
X-11338900Y+4661100D02*
X-10145100Y+4661100D01*
X-10145100Y+4838900D01*
X-11338900Y+4838900D01*
X-11338900Y+4661100D01*
D40*
X-10827344Y+4717996D02*
X-10827344Y+4782004D01*
X-10774004Y+4782004D01*
X-10763336Y+4771336D01*
X-10763336Y+4760668D01*
X-10774004Y+4750000D01*
X-10827344Y+4750000D01*
X-10774004Y+4750000D02*
X-10763336Y+4739332D01*
X-10763336Y+4717996D01*
X-10677992Y+4739332D02*
X-10742000Y+4739332D01*
X-10699328Y+4782004D01*
X-10699328Y+4717996D01*
D22*
X-10088900Y+4661100D02*
X-8895100Y+4661100D01*
X-8895100Y+4838900D01*
X-10088900Y+4838900D01*
X-10088900Y+4661100D01*
D40*
X-9577344Y+4717996D02*
X-9577344Y+4782004D01*
X-9524004Y+4782004D01*
X-9513336Y+4771336D01*
X-9513336Y+4760668D01*
X-9524004Y+4750000D01*
X-9577344Y+4750000D01*
X-9524004Y+4750000D02*
X-9513336Y+4739332D01*
X-9513336Y+4717996D01*
X-9427992Y+4782004D02*
X-9481332Y+4782004D01*
X-9481332Y+4760668D01*
X-9438660Y+4760668D01*
X-9427992Y+4750000D01*
X-9427992Y+4728664D01*
X-9438660Y+4717996D01*
X-9470664Y+4717996D01*
X-9481332Y+4728664D01*
D22*
X-8588900Y+3411100D02*
X-8411100Y+3411100D01*
X-8411100Y+4604900D01*
X-8588900Y+4604900D01*
X-8588900Y+3411100D01*
D40*
X-8467996Y+3922656D02*
X-8532004Y+3922656D01*
X-8532004Y+3975996D01*
X-8521336Y+3986664D01*
X-8510668Y+3986664D01*
X-8500000Y+3975996D01*
X-8500000Y+3922656D01*
X-8500000Y+3975996D02*
X-8489332Y+3986664D01*
X-8467996Y+3986664D01*
X-8521336Y+4072008D02*
X-8532004Y+4061340D01*
X-8532004Y+4029336D01*
X-8521336Y+4018668D01*
X-8478664Y+4018668D01*
X-8467996Y+4029336D01*
X-8467996Y+4061340D01*
X-8478664Y+4072008D01*
X-8489332Y+4072008D01*
X-8500000Y+4061340D01*
X-8500000Y+4018668D01*
D22*
X-11338900Y+5161100D02*
X-10145100Y+5161100D01*
X-10145100Y+5338900D01*
X-11338900Y+5338900D01*
X-11338900Y+5161100D01*
D40*
X-10827344Y+5217996D02*
X-10827344Y+5282004D01*
X-10774004Y+5282004D01*
X-10763336Y+5271336D01*
X-10763336Y+5260668D01*
X-10774004Y+5250000D01*
X-10827344Y+5250000D01*
X-10774004Y+5250000D02*
X-10763336Y+5239332D01*
X-10763336Y+5217996D01*
X-10731332Y+5282004D02*
X-10677992Y+5282004D01*
X-10677992Y+5271336D01*
X-10731332Y+5217996D01*
D22*
X-11950660Y+3795340D02*
X-11549340Y+3795340D01*
X-11549340Y+4704660D01*
X-11950660Y+4704660D01*
X-11950660Y+3795340D01*
D39*
X-11681801Y+3977204D02*
X-11818199Y+3977204D01*
X-11818199Y+4090869D01*
X-11795466Y+4113602D01*
X-11772733Y+4113602D01*
X-11750000Y+4090869D01*
X-11750000Y+3977204D01*
X-11750000Y+4090869D02*
X-11727267Y+4113602D01*
X-11681801Y+4113602D01*
X-11818199Y+4159068D02*
X-11750000Y+4159068D01*
X-11681801Y+4227267D01*
X-11750000Y+4295466D01*
X-11818199Y+4295466D01*
X-11795466Y+4363665D02*
X-11818199Y+4386398D01*
X-11818199Y+4454597D01*
X-11795466Y+4477330D01*
X-11772733Y+4477330D01*
X-11750000Y+4454597D01*
X-11750000Y+4386398D01*
X-11727267Y+4363665D01*
X-11681801Y+4363665D01*
X-11681801Y+4477330D01*
D22*
X-11950660Y+4795340D02*
X-11549340Y+4795340D01*
X-11549340Y+5704660D01*
X-11950660Y+5704660D01*
X-11950660Y+4795340D01*
D39*
X-11681801Y+4977204D02*
X-11818199Y+4977204D01*
X-11818199Y+5090869D01*
X-11795466Y+5113602D01*
X-11772733Y+5113602D01*
X-11750000Y+5090869D01*
X-11750000Y+4977204D01*
X-11750000Y+5090869D02*
X-11727267Y+5113602D01*
X-11681801Y+5113602D01*
X-11818199Y+5159068D02*
X-11750000Y+5159068D01*
X-11681801Y+5227267D01*
X-11750000Y+5295466D01*
X-11818199Y+5295466D01*
X-11795466Y+5363665D02*
X-11818199Y+5386398D01*
X-11818199Y+5454597D01*
X-11795466Y+5477330D01*
X-11772733Y+5477330D01*
X-11750000Y+5454597D01*
X-11727267Y+5477330D01*
X-11704534Y+5477330D01*
X-11681801Y+5454597D01*
X-11681801Y+5386398D01*
X-11704534Y+5363665D01*
X-11750000Y+5409131D02*
X-11750000Y+5454597D01*
D22*
X-10364300Y+5857760D02*
X-9119700Y+5857760D01*
X-9119700Y+6144780D01*
X-10364300Y+6144780D01*
X-10364300Y+5857760D01*
D45*
X-9879769Y+5949606D02*
X-9879769Y+6052933D01*
X-9810885Y+6052933D01*
X-9776443Y+6018491D01*
X-9776443Y+5984048D01*
X-9810885Y+5949606D01*
X-9879769Y+5949606D01*
X-9707558Y+6018491D02*
X-9673116Y+6052933D01*
X-9673116Y+5949606D01*
D22*
X-11864300Y+5855220D02*
X-10619700Y+5855220D01*
X-10619700Y+6142240D01*
X-11864300Y+6142240D01*
X-11864300Y+5855220D01*
D45*
X-11379769Y+5947066D02*
X-11379769Y+6050393D01*
X-11310885Y+6050393D01*
X-11276443Y+6015951D01*
X-11276443Y+5981508D01*
X-11310885Y+5947066D01*
X-11379769Y+5947066D01*
X-11224779Y+6033172D02*
X-11207558Y+6050393D01*
X-11155895Y+6050393D01*
X-11138674Y+6033172D01*
X-11138674Y+6015951D01*
X-11155895Y+5998730D01*
X-11207558Y+5998730D01*
X-11224779Y+5981508D01*
X-11224779Y+5947066D01*
X-11138674Y+5947066D01*
D22*
X-2550160Y+4412840D02*
X-2021840Y+4412840D01*
X-2021840Y+4687160D01*
X-2550160Y+4687160D01*
X-2550160Y+4412840D01*
D38*
X-2417673Y+4533540D02*
X-2417673Y+4517081D01*
X-2401214Y+4500622D01*
X-2335378Y+4500622D01*
X-2318919Y+4517081D01*
X-2318919Y+4599377D01*
X-2187246Y+4582918D02*
X-2203705Y+4599377D01*
X-2253082Y+4599377D01*
X-2269541Y+4582918D01*
X-2269541Y+4517081D01*
X-2253082Y+4500622D01*
X-2203705Y+4500622D01*
X-2187246Y+4517081D01*
X-2187246Y+4533540D01*
X-2203705Y+4550000D01*
X-2269541Y+4550000D01*
D22*
X-5887160Y+1912840D02*
X-5612840Y+1912840D01*
X-5612840Y+2187160D01*
X-5887160Y+2187160D01*
X-5887160Y+1912840D01*
D46*
X-5832296Y+2043142D02*
X-5832296Y+2036284D01*
X-5825438Y+2029426D01*
X-5798006Y+2029426D01*
X-5791148Y+2036284D01*
X-5791148Y+2070574D01*
X-5763716Y+2056858D02*
X-5750000Y+2070574D01*
X-5750000Y+2029426D01*
X-5722568Y+2036284D02*
X-5722568Y+2063716D01*
X-5715710Y+2070574D01*
X-5688278Y+2070574D01*
X-5681420Y+2063716D01*
X-5681420Y+2036284D01*
X-5688278Y+2029426D01*
X-5715710Y+2029426D01*
X-5722568Y+2036284D01*
X-5722568Y+2029426D02*
X-5681420Y+2070574D01*
D22*
X-5887160Y+2912840D02*
X-5612840Y+2912840D01*
X-5612840Y+3187160D01*
X-5887160Y+3187160D01*
X-5887160Y+2912840D01*
D46*
X-5832296Y+3043142D02*
X-5832296Y+3036284D01*
X-5825438Y+3029426D01*
X-5798006Y+3029426D01*
X-5791148Y+3036284D01*
X-5791148Y+3070574D01*
X-5763716Y+3056858D02*
X-5750000Y+3070574D01*
X-5750000Y+3029426D01*
X-5681420Y+3063716D02*
X-5688278Y+3070574D01*
X-5708852Y+3070574D01*
X-5715710Y+3063716D01*
X-5715710Y+3036284D01*
X-5708852Y+3029426D01*
X-5688278Y+3029426D01*
X-5681420Y+3036284D01*
X-5681420Y+3043142D01*
X-5688278Y+3050000D01*
X-5715710Y+3050000D01*
D22*
X-5887160Y+5162840D02*
X-5612840Y+5162840D01*
X-5612840Y+5691160D01*
X-5887160Y+5691160D01*
X-5887160Y+5162840D01*
D47*
X-5736792Y+5268504D02*
X-5723584Y+5268504D01*
X-5710376Y+5281712D01*
X-5710376Y+5334544D01*
X-5723584Y+5347752D01*
X-5789624Y+5347752D01*
X-5763208Y+5400584D02*
X-5789624Y+5427000D01*
X-5710376Y+5427000D01*
X-5776416Y+5493040D02*
X-5789624Y+5506248D01*
X-5789624Y+5545872D01*
X-5776416Y+5559080D01*
X-5763208Y+5559080D01*
X-5750000Y+5545872D01*
X-5750000Y+5506248D01*
X-5736792Y+5493040D01*
X-5710376Y+5493040D01*
X-5710376Y+5559080D01*
D22*
X-3387160Y+1912840D02*
X-3112840Y+1912840D01*
X-3112840Y+2187160D01*
X-3387160Y+2187160D01*
X-3387160Y+1912840D01*
D46*
X-3243142Y+1967704D02*
X-3236284Y+1967704D01*
X-3229426Y+1974562D01*
X-3229426Y+2001994D01*
X-3236284Y+2008852D01*
X-3270574Y+2008852D01*
X-3256858Y+2036284D02*
X-3270574Y+2050000D01*
X-3229426Y+2050000D01*
X-3256858Y+2091148D02*
X-3270574Y+2104864D01*
X-3229426Y+2104864D01*
D22*
X-3387160Y+5162840D02*
X-3112840Y+5162840D01*
X-3112840Y+5691160D01*
X-3387160Y+5691160D01*
X-3387160Y+5162840D01*
D47*
X-3236792Y+5268504D02*
X-3223584Y+5268504D01*
X-3210376Y+5281712D01*
X-3210376Y+5334544D01*
X-3223584Y+5347752D01*
X-3289624Y+5347752D01*
X-3263208Y+5400584D02*
X-3289624Y+5427000D01*
X-3210376Y+5427000D01*
X-3276416Y+5493040D02*
X-3289624Y+5506248D01*
X-3289624Y+5545872D01*
X-3276416Y+5559080D01*
X-3263208Y+5559080D01*
X-3250000Y+5545872D01*
X-3236792Y+5559080D01*
X-3223584Y+5559080D01*
X-3210376Y+5545872D01*
X-3210376Y+5506248D01*
X-3223584Y+5493040D01*
X-3250000Y+5519456D02*
X-3250000Y+5545872D01*
D22*
X-12648660Y+6375000D02*
X-11328340Y+6375000D01*
X-11328340Y+7925000D01*
X-12648660Y+7925000D01*
X-12648660Y+6375000D01*
D48*
X-11911000Y+6633335D02*
X-12066000Y+6633335D01*
X-12066000Y+6762501D01*
X-12040167Y+6788334D01*
X-12014333Y+6788334D01*
X-11988500Y+6762501D01*
X-11988500Y+6633335D01*
X-11988500Y+6762501D02*
X-11962667Y+6788334D01*
X-11911000Y+6788334D01*
X-11962667Y+6840001D02*
X-11936833Y+6840001D01*
X-11911000Y+6865834D01*
X-11911000Y+6969167D01*
X-11936833Y+6995000D01*
X-12066000Y+6995000D01*
X-11962667Y+7408332D02*
X-11962667Y+7253333D01*
X-12066000Y+7356666D01*
X-11911000Y+7356666D01*
X-12066000Y+7614998D02*
X-12066000Y+7485832D01*
X-12014333Y+7485832D01*
X-12014333Y+7589165D01*
X-11988500Y+7614998D01*
X-11936833Y+7614998D01*
X-11911000Y+7589165D01*
X-11911000Y+7511665D01*
X-11936833Y+7485832D01*
D22*
X-7938900Y+5811100D02*
X-6745100Y+5811100D01*
X-6745100Y+5988900D01*
X-7938900Y+5988900D01*
X-7938900Y+5811100D01*
D40*
X-7427344Y+5867996D02*
X-7427344Y+5932004D01*
X-7374004Y+5932004D01*
X-7363336Y+5921336D01*
X-7363336Y+5910668D01*
X-7374004Y+5900000D01*
X-7427344Y+5900000D01*
X-7374004Y+5900000D02*
X-7363336Y+5889332D01*
X-7363336Y+5867996D01*
X-7320664Y+5900000D02*
X-7331332Y+5910668D01*
X-7331332Y+5921336D01*
X-7320664Y+5932004D01*
X-7288660Y+5932004D01*
X-7277992Y+5921336D01*
X-7277992Y+5910668D01*
X-7288660Y+5900000D01*
X-7320664Y+5900000D01*
X-7331332Y+5889332D01*
X-7331332Y+5878664D01*
X-7320664Y+5867996D01*
X-7288660Y+5867996D01*
X-7277992Y+5878664D01*
X-7277992Y+5889332D01*
X-7288660Y+5900000D01*
D22*
X-7954900Y+6466100D02*
X-6761100Y+6466100D01*
X-6761100Y+6643900D01*
X-7954900Y+6643900D01*
X-7954900Y+6466100D01*
D40*
X-7486016Y+6522996D02*
X-7486016Y+6587004D01*
X-7432676Y+6587004D01*
X-7422008Y+6576336D01*
X-7422008Y+6565668D01*
X-7432676Y+6555000D01*
X-7486016Y+6555000D01*
X-7432676Y+6555000D02*
X-7422008Y+6544332D01*
X-7422008Y+6522996D01*
X-7379336Y+6565668D02*
X-7358000Y+6587004D01*
X-7358000Y+6522996D01*
X-7304660Y+6576336D02*
X-7293992Y+6587004D01*
X-7261988Y+6587004D01*
X-7251320Y+6576336D01*
X-7251320Y+6565668D01*
X-7261988Y+6555000D01*
X-7293992Y+6555000D01*
X-7304660Y+6544332D01*
X-7304660Y+6522996D01*
X-7251320Y+6522996D01*
D22*
X-7950900Y+7193100D02*
X-6757100Y+7193100D01*
X-6757100Y+7370900D01*
X-7950900Y+7370900D01*
X-7950900Y+7193100D01*
D40*
X-7482016Y+7249996D02*
X-7482016Y+7314004D01*
X-7428676Y+7314004D01*
X-7418008Y+7303336D01*
X-7418008Y+7292668D01*
X-7428676Y+7282000D01*
X-7482016Y+7282000D01*
X-7428676Y+7282000D02*
X-7418008Y+7271332D01*
X-7418008Y+7249996D01*
X-7375336Y+7292668D02*
X-7354000Y+7314004D01*
X-7354000Y+7249996D01*
X-7300660Y+7303336D02*
X-7289992Y+7314004D01*
X-7257988Y+7314004D01*
X-7247320Y+7303336D01*
X-7247320Y+7292668D01*
X-7257988Y+7282000D01*
X-7247320Y+7271332D01*
X-7247320Y+7260664D01*
X-7257988Y+7249996D01*
X-7289992Y+7249996D01*
X-7300660Y+7260664D01*
X-7279324Y+7282000D02*
X-7257988Y+7282000D01*
D22*
X-7950900Y+8047100D02*
X-6757100Y+8047100D01*
X-6757100Y+8224900D01*
X-7950900Y+8224900D01*
X-7950900Y+8047100D01*
D40*
X-7482016Y+8103996D02*
X-7482016Y+8168004D01*
X-7428676Y+8168004D01*
X-7418008Y+8157336D01*
X-7418008Y+8146668D01*
X-7428676Y+8136000D01*
X-7482016Y+8136000D01*
X-7428676Y+8136000D02*
X-7418008Y+8125332D01*
X-7418008Y+8103996D01*
X-7375336Y+8146668D02*
X-7354000Y+8168004D01*
X-7354000Y+8103996D01*
X-7247320Y+8125332D02*
X-7311328Y+8125332D01*
X-7268656Y+8168004D01*
X-7268656Y+8103996D01*
D22*
X-7950900Y+8647100D02*
X-6757100Y+8647100D01*
X-6757100Y+8824900D01*
X-7950900Y+8824900D01*
X-7950900Y+8647100D01*
D40*
X-7482016Y+8703996D02*
X-7482016Y+8768004D01*
X-7428676Y+8768004D01*
X-7418008Y+8757336D01*
X-7418008Y+8746668D01*
X-7428676Y+8736000D01*
X-7482016Y+8736000D01*
X-7428676Y+8736000D02*
X-7418008Y+8725332D01*
X-7418008Y+8703996D01*
X-7375336Y+8746668D02*
X-7354000Y+8768004D01*
X-7354000Y+8703996D01*
X-7247320Y+8768004D02*
X-7300660Y+8768004D01*
X-7300660Y+8746668D01*
X-7257988Y+8746668D01*
X-7247320Y+8736000D01*
X-7247320Y+8714664D01*
X-7257988Y+8703996D01*
X-7289992Y+8703996D01*
X-7300660Y+8714664D01*
D22*
X-8487160Y+5635840D02*
X-8085840Y+5635840D01*
X-8085840Y+6164160D01*
X-8487160Y+6164160D01*
X-8487160Y+5635840D01*
D49*
X-8304110Y+5759116D02*
X-8339331Y+5794337D01*
X-8339331Y+5829558D01*
X-8304110Y+5864779D01*
X-8268889Y+5864779D01*
X-8233668Y+5829558D01*
X-8233668Y+5794337D01*
X-8268889Y+5759116D01*
X-8304110Y+5759116D01*
X-8268889Y+5829558D02*
X-8233668Y+5864779D01*
X-8304110Y+5935221D02*
X-8339331Y+5970442D01*
X-8233668Y+5970442D01*
D22*
X-8487160Y+6290840D02*
X-8085840Y+6290840D01*
X-8085840Y+6819160D01*
X-8487160Y+6819160D01*
X-8487160Y+6290840D01*
D49*
X-8304110Y+6414116D02*
X-8339331Y+6449337D01*
X-8339331Y+6484558D01*
X-8304110Y+6519779D01*
X-8268889Y+6519779D01*
X-8233668Y+6484558D01*
X-8233668Y+6449337D01*
X-8268889Y+6414116D01*
X-8304110Y+6414116D01*
X-8268889Y+6484558D02*
X-8233668Y+6519779D01*
X-8321721Y+6572610D02*
X-8339331Y+6590221D01*
X-8339331Y+6643052D01*
X-8321721Y+6660663D01*
X-8304110Y+6660663D01*
X-8286500Y+6643052D01*
X-8286500Y+6590221D01*
X-8268889Y+6572610D01*
X-8233668Y+6572610D01*
X-8233668Y+6660663D01*
D22*
X-8483160Y+7017840D02*
X-8081840Y+7017840D01*
X-8081840Y+7546160D01*
X-8483160Y+7546160D01*
X-8483160Y+7017840D01*
D49*
X-8300110Y+7141116D02*
X-8335331Y+7176337D01*
X-8335331Y+7211558D01*
X-8300110Y+7246779D01*
X-8264889Y+7246779D01*
X-8229668Y+7211558D01*
X-8229668Y+7176337D01*
X-8264889Y+7141116D01*
X-8300110Y+7141116D01*
X-8264889Y+7211558D02*
X-8229668Y+7246779D01*
X-8317721Y+7299610D02*
X-8335331Y+7317221D01*
X-8335331Y+7370052D01*
X-8317721Y+7387663D01*
X-8300110Y+7387663D01*
X-8282500Y+7370052D01*
X-8264889Y+7387663D01*
X-8247278Y+7387663D01*
X-8229668Y+7370052D01*
X-8229668Y+7317221D01*
X-8247278Y+7299610D01*
X-8282500Y+7334831D02*
X-8282500Y+7370052D01*
D22*
X-8483160Y+7744840D02*
X-8081840Y+7744840D01*
X-8081840Y+8273160D01*
X-8483160Y+8273160D01*
X-8483160Y+7744840D01*
D49*
X-8300110Y+7868116D02*
X-8335331Y+7903337D01*
X-8335331Y+7938558D01*
X-8300110Y+7973779D01*
X-8264889Y+7973779D01*
X-8229668Y+7938558D01*
X-8229668Y+7903337D01*
X-8264889Y+7868116D01*
X-8300110Y+7868116D01*
X-8264889Y+7938558D02*
X-8229668Y+7973779D01*
X-8264889Y+8114663D02*
X-8264889Y+8009000D01*
X-8335331Y+8079442D01*
X-8229668Y+8079442D01*
D22*
X-8483160Y+8471840D02*
X-8081840Y+8471840D01*
X-8081840Y+9000160D01*
X-8483160Y+9000160D01*
X-8483160Y+8471840D01*
D49*
X-8300110Y+8595116D02*
X-8335331Y+8630337D01*
X-8335331Y+8665558D01*
X-8300110Y+8700779D01*
X-8264889Y+8700779D01*
X-8229668Y+8665558D01*
X-8229668Y+8630337D01*
X-8264889Y+8595116D01*
X-8300110Y+8595116D01*
X-8264889Y+8665558D02*
X-8229668Y+8700779D01*
X-8335331Y+8841663D02*
X-8335331Y+8753610D01*
X-8300110Y+8753610D01*
X-8300110Y+8824052D01*
X-8282500Y+8841663D01*
X-8247278Y+8841663D01*
X-8229668Y+8824052D01*
X-8229668Y+8771221D01*
X-8247278Y+8753610D01*
D22*
X-6233160Y+8244840D02*
X-5958840Y+8244840D01*
X-5958840Y+8773160D01*
X-6233160Y+8773160D01*
X-6233160Y+8244840D01*
D38*
X-6079540Y+8377327D02*
X-6063081Y+8377327D01*
X-6046622Y+8393786D01*
X-6046622Y+8459622D01*
X-6063081Y+8476081D01*
X-6145377Y+8476081D01*
X-6096000Y+8541918D02*
X-6112459Y+8525459D01*
X-6128918Y+8525459D01*
X-6145377Y+8541918D01*
X-6145377Y+8591295D01*
X-6128918Y+8607754D01*
X-6112459Y+8607754D01*
X-6096000Y+8591295D01*
X-6096000Y+8541918D01*
X-6079540Y+8525459D01*
X-6063081Y+8525459D01*
X-6046622Y+8541918D01*
X-6046622Y+8591295D01*
X-6063081Y+8607754D01*
X-6079540Y+8607754D01*
X-6096000Y+8591295D01*
D22*
X-5688900Y+6850100D02*
X-5511100Y+6850100D01*
X-5511100Y+8043900D01*
X-5688900Y+8043900D01*
X-5688900Y+6850100D01*
D40*
X-5567996Y+7318984D02*
X-5632004Y+7318984D01*
X-5632004Y+7372324D01*
X-5621336Y+7382992D01*
X-5610668Y+7382992D01*
X-5600000Y+7372324D01*
X-5600000Y+7318984D01*
X-5600000Y+7372324D02*
X-5589332Y+7382992D01*
X-5567996Y+7382992D01*
X-5610668Y+7425664D02*
X-5632004Y+7447000D01*
X-5567996Y+7447000D01*
X-5621336Y+7553680D02*
X-5632004Y+7543012D01*
X-5632004Y+7511008D01*
X-5621336Y+7500340D01*
X-5578664Y+7500340D01*
X-5567996Y+7511008D01*
X-5567996Y+7543012D01*
X-5578664Y+7553680D01*
X-5589332Y+7553680D01*
X-5600000Y+7543012D01*
X-5600000Y+7500340D01*
D22*
X-9337160Y+8081840D02*
X-9062840Y+8081840D01*
X-9062840Y+8864160D01*
X-9337160Y+8864160D01*
X-9337160Y+8081840D01*
D38*
X-9183540Y+8341327D02*
X-9167081Y+8341327D01*
X-9150622Y+8357786D01*
X-9150622Y+8423622D01*
X-9167081Y+8440081D01*
X-9249377Y+8440081D01*
X-9249377Y+8489459D02*
X-9249377Y+8571754D01*
X-9232918Y+8571754D01*
X-9150622Y+8489459D01*
D22*
X-7888900Y+5211100D02*
X-6695100Y+5211100D01*
X-6695100Y+5388900D01*
X-7888900Y+5388900D01*
X-7888900Y+5211100D01*
D40*
X-7420016Y+5267996D02*
X-7420016Y+5332004D01*
X-7366676Y+5332004D01*
X-7356008Y+5321336D01*
X-7356008Y+5310668D01*
X-7366676Y+5300000D01*
X-7420016Y+5300000D01*
X-7366676Y+5300000D02*
X-7356008Y+5289332D01*
X-7356008Y+5267996D01*
X-7313336Y+5310668D02*
X-7292000Y+5332004D01*
X-7292000Y+5267996D01*
X-7238660Y+5332004D02*
X-7185320Y+5332004D01*
X-7185320Y+5321336D01*
X-7238660Y+5267996D01*
D22*
X-7237160Y+10454840D02*
X-6962840Y+10454840D01*
X-6962840Y+11237160D01*
X-7237160Y+11237160D01*
X-7237160Y+10454840D01*
D38*
X-7050622Y+10714327D02*
X-7149377Y+10714327D01*
X-7100000Y+10763704D01*
X-7149377Y+10813081D01*
X-7050622Y+10813081D01*
X-7116459Y+10878918D02*
X-7149377Y+10911836D01*
X-7050622Y+10911836D01*
D22*
X-2707160Y+399340D02*
X-1162840Y+399340D01*
X-1162840Y+800660D01*
X-2707160Y+800660D01*
X-2707160Y+399340D01*
D42*
X-2223949Y+575920D02*
X-2223949Y+551841D01*
X-2199870Y+527762D01*
X-2103554Y+527762D01*
X-2079475Y+551841D01*
X-2079475Y+672237D01*
X-1983158Y+624079D02*
X-1935000Y+672237D01*
X-1935000Y+527762D01*
X-1694209Y+575920D02*
X-1838683Y+575920D01*
X-1742367Y+672237D01*
X-1742367Y+527762D01*
M02*
