G04 PROTEUS GERBER X2 FILE*
%TF.GenerationSoftware,Labcenter,Proteus,8.8-SP1-Build27031*%
%TF.CreationDate,2021-08-02T14:58:59+00:00*%
%TF.FileFunction,Soldermask,Bot*%
%TF.FilePolarity,Negative*%
%TF.Part,Single*%
%TF.SameCoordinates,{c3ce3005-f07b-4d42-96ea-8d11783d6a5d}*%
%FSLAX45Y45*%
%MOMM*%
G01*
%TA.AperFunction,Material*%
%ADD23C,1.524000*%
%AMPPAD016*
4,1,8,
-1.397000,-0.509800,
-1.397000,0.509800,
-1.017800,0.889000,
1.017800,0.889000,
1.397000,0.509800,
1.397000,-0.509800,
1.017800,-0.889000,
-1.017800,-0.889000,
-1.397000,-0.509800,
0*%
%TA.AperFunction,Material*%
%ADD24PPAD016*%
%AMPPAD017*
4,1,8,
-0.509800,1.397000,
0.509800,1.397000,
0.889000,1.017800,
0.889000,-1.017800,
0.509800,-1.397000,
-0.509800,-1.397000,
-0.889000,-1.017800,
-0.889000,1.017800,
-0.509800,1.397000,
0*%
%TA.AperFunction,Material*%
%ADD25PPAD017*%
%AMPPAD018*
4,1,36,
1.143000,1.016000,
1.143000,-1.016000,
1.140470,-1.041970,
1.133200,-1.065980,
1.121650,-1.087580,
1.106290,-1.106290,
1.087570,-1.121650,
1.065980,-1.133200,
1.041970,-1.140470,
1.016000,-1.143000,
-1.016000,-1.143000,
-1.041970,-1.140470,
-1.065980,-1.133200,
-1.087570,-1.121650,
-1.106290,-1.106290,
-1.121650,-1.087580,
-1.133200,-1.065980,
-1.140470,-1.041970,
-1.143000,-1.016000,
-1.143000,1.016000,
-1.140470,1.041970,
-1.133200,1.065980,
-1.121650,1.087580,
-1.106290,1.106290,
-1.087570,1.121650,
-1.065980,1.133200,
-1.041970,1.140470,
-1.016000,1.143000,
1.016000,1.143000,
1.041970,1.140470,
1.065980,1.133200,
1.087570,1.121650,
1.106290,1.106290,
1.121650,1.087580,
1.133200,1.065980,
1.140470,1.041970,
1.143000,1.016000,
0*%
%TA.AperFunction,Material*%
%ADD26PPAD018*%
%TA.AperFunction,Material*%
%ADD27C,2.286000*%
%TA.AperFunction,Material*%
%ADD28C,2.032000*%
%AMPPAD021*
4,1,36,
-0.635000,0.762000,
0.635000,0.762000,
0.660970,0.759470,
0.684980,0.752200,
0.706580,0.740650,
0.725290,0.725290,
0.740650,0.706570,
0.752200,0.684980,
0.759470,0.660970,
0.762000,0.635000,
0.762000,-0.635000,
0.759470,-0.660970,
0.752200,-0.684980,
0.740650,-0.706570,
0.725290,-0.725290,
0.706580,-0.740650,
0.684980,-0.752200,
0.660970,-0.759470,
0.635000,-0.762000,
-0.635000,-0.762000,
-0.660970,-0.759470,
-0.684980,-0.752200,
-0.706580,-0.740650,
-0.725290,-0.725290,
-0.740650,-0.706570,
-0.752200,-0.684980,
-0.759470,-0.660970,
-0.762000,-0.635000,
-0.762000,0.635000,
-0.759470,0.660970,
-0.752200,0.684980,
-0.740650,0.706570,
-0.725290,0.725290,
-0.706580,0.740650,
-0.684980,0.752200,
-0.660970,0.759470,
-0.635000,0.762000,
0*%
%TA.AperFunction,Material*%
%ADD29PPAD021*%
%AMPPAD022*
4,1,36,
1.016000,-1.143000,
-1.016000,-1.143000,
-1.041970,-1.140470,
-1.065980,-1.133200,
-1.087580,-1.121650,
-1.106290,-1.106290,
-1.121650,-1.087570,
-1.133200,-1.065980,
-1.140470,-1.041970,
-1.143000,-1.016000,
-1.143000,1.016000,
-1.140470,1.041970,
-1.133200,1.065980,
-1.121650,1.087570,
-1.106290,1.106290,
-1.087580,1.121650,
-1.065980,1.133200,
-1.041970,1.140470,
-1.016000,1.143000,
1.016000,1.143000,
1.041970,1.140470,
1.065980,1.133200,
1.087580,1.121650,
1.106290,1.106290,
1.121650,1.087570,
1.133200,1.065980,
1.140470,1.041970,
1.143000,1.016000,
1.143000,-1.016000,
1.140470,-1.041970,
1.133200,-1.065980,
1.121650,-1.087570,
1.106290,-1.106290,
1.087580,-1.121650,
1.065980,-1.133200,
1.041970,-1.140470,
1.016000,-1.143000,
0*%
%TA.AperFunction,Material*%
%ADD72PPAD022*%
%TA.AperFunction,Material*%
%ADD73C,2.540000*%
%TA.AperFunction,Material*%
%ADD30C,1.778000*%
%TA.AperFunction,Material*%
%ADD32C,1.270000*%
%TA.AperFunction,Profile*%
%ADD21C,0.203200*%
%TD.AperFunction*%
D23*
X-11000000Y+6300000D03*
X-11001181Y+6660750D03*
X-7200000Y+9200000D03*
X-6800000Y+9200000D03*
X-3300000Y+11300000D03*
X-3300000Y+11800000D03*
D24*
X-3750000Y+2050000D03*
X-3750000Y+2304000D03*
X-3750000Y+2558000D03*
X-3750000Y+2812000D03*
X-3750000Y+3066000D03*
X-3750000Y+3320000D03*
X-3750000Y+3574000D03*
X-3750000Y+3828000D03*
X-3750000Y+4082000D03*
X-3750000Y+4336000D03*
X-3750000Y+4590000D03*
X-3750000Y+4844000D03*
X-3750000Y+5098000D03*
X-3750000Y+5352000D03*
X-3750000Y+5606000D03*
X-5274000Y+5606000D03*
X-5274000Y+5352000D03*
X-5274000Y+5098000D03*
X-5274000Y+4844000D03*
X-5274000Y+4590000D03*
X-5274000Y+4336000D03*
X-5274000Y+4082000D03*
X-5274000Y+3828000D03*
X-5274000Y+3574000D03*
X-5274000Y+3320000D03*
X-5274000Y+3066000D03*
X-5274000Y+2812000D03*
X-5274000Y+2558000D03*
X-5274000Y+2304000D03*
X-5274000Y+2050000D03*
X-1750000Y+9000000D03*
X-1750000Y+9254000D03*
X-1750000Y+9508000D03*
X-1750000Y+9762000D03*
X-1750000Y+10016000D03*
X-1750000Y+10270000D03*
X-1750000Y+10524000D03*
X-1750000Y+10778000D03*
X-1750000Y+11032000D03*
X-1750000Y+11286000D03*
D25*
X-6500000Y+10500000D03*
X-6246000Y+10500000D03*
X-5992000Y+10500000D03*
X-5738000Y+10500000D03*
X-5484000Y+10500000D03*
X-5230000Y+10500000D03*
X-3750000Y+10500000D03*
X-4004000Y+10500000D03*
X-4258000Y+10500000D03*
X-4512000Y+10500000D03*
D26*
X-2500000Y+11250000D03*
X-2500000Y+10996000D03*
X-2500000Y+10742000D03*
X-2500000Y+10488000D03*
D27*
X-3000000Y+10496000D03*
X-3000000Y+11004000D03*
X-3000000Y+10750000D03*
D26*
X-2159000Y+5300000D03*
X-2159000Y+5554000D03*
X-2159000Y+5808000D03*
X-2159000Y+6062000D03*
X-2159000Y+6492000D03*
X-2159000Y+6746000D03*
X-2159000Y+7000000D03*
X-2159000Y+7254000D03*
X-2159000Y+8000000D03*
X-2159000Y+8254000D03*
X-2159000Y+8508000D03*
X-2159000Y+8762000D03*
D28*
X-2409000Y+2550000D03*
X-2409000Y+3566000D03*
X-1909000Y+2550000D03*
X-1909000Y+3566000D03*
D26*
X-3250000Y+3562000D03*
X-3250000Y+3308000D03*
X-3250000Y+3054000D03*
X-3250000Y+2800000D03*
D29*
X-10512000Y+3488000D03*
D23*
X-10258000Y+3488000D03*
X-10004000Y+3488000D03*
X-9750000Y+3488000D03*
X-9750000Y+4250000D03*
X-10004000Y+4250000D03*
X-10258000Y+4250000D03*
X-10512000Y+4250000D03*
D72*
X-10746000Y+750000D03*
X-11000000Y+750000D03*
X-11254000Y+750000D03*
X-9496000Y+750000D03*
X-9750000Y+750000D03*
X-10004000Y+750000D03*
D28*
X-10500000Y+1754000D03*
X-10500000Y+1500000D03*
X-10000000Y+1754000D03*
X-10000000Y+1500000D03*
X-11250000Y+1500000D03*
X-11250000Y+1754000D03*
D26*
X-12000000Y+1750000D03*
X-12000000Y+1496000D03*
D28*
X-9250000Y+1754000D03*
X-9250000Y+1500000D03*
D27*
X-8000000Y+750000D03*
X-8254000Y+750000D03*
X-8508000Y+750000D03*
D28*
X-10516000Y+2500000D03*
X-9500000Y+2500000D03*
X-11250000Y+3500000D03*
X-11250000Y+2484000D03*
X-9000000Y+3500000D03*
X-9000000Y+2484000D03*
X-8000000Y+3000000D03*
X-8000000Y+2492000D03*
X-8000000Y+4500000D03*
X-8000000Y+3484000D03*
X-11250000Y+4750000D03*
X-10234000Y+4750000D03*
X-8984000Y+4750000D03*
X-10000000Y+4750000D03*
X-8500000Y+3500000D03*
X-8500000Y+4516000D03*
X-11250000Y+5250000D03*
X-10234000Y+5250000D03*
D27*
X-11750000Y+3996000D03*
X-11750000Y+4504000D03*
X-11750000Y+4250000D03*
X-11750000Y+4996000D03*
X-11750000Y+5504000D03*
X-11750000Y+5250000D03*
D73*
X-9234000Y+6000000D03*
X-10250000Y+6000000D03*
X-11750000Y+6000000D03*
X-10734000Y+6000000D03*
D72*
X-2159000Y+4550000D03*
X-2413000Y+4550000D03*
X-5750000Y+2050000D03*
X-5750000Y+3050000D03*
D26*
X-5750000Y+5300000D03*
X-5750000Y+5554000D03*
X-3250000Y+2050000D03*
X-3250000Y+5554000D03*
X-3250000Y+5300000D03*
D30*
X-11738500Y+6800000D03*
X-11538500Y+6900000D03*
X-11538500Y+7100000D03*
X-11538500Y+7300000D03*
X-11538500Y+7500000D03*
X-11738500Y+7000000D03*
X-11738500Y+7200000D03*
X-11738500Y+7400000D03*
D28*
X-6834000Y+5900000D03*
X-7850000Y+5900000D03*
X-6850000Y+6555000D03*
X-7866000Y+6555000D03*
X-6846000Y+7282000D03*
X-7862000Y+7282000D03*
X-6846000Y+8136000D03*
X-7862000Y+8136000D03*
X-6846000Y+8736000D03*
X-7862000Y+8736000D03*
D32*
X-8350000Y+6027000D03*
X-8350000Y+5900000D03*
X-8350000Y+5773000D03*
X-8350000Y+6682000D03*
X-8350000Y+6555000D03*
X-8350000Y+6428000D03*
X-8346000Y+7409000D03*
X-8346000Y+7282000D03*
X-8346000Y+7155000D03*
X-8346000Y+8136000D03*
X-8346000Y+8009000D03*
X-8346000Y+7882000D03*
X-8346000Y+8863000D03*
X-8346000Y+8736000D03*
X-8346000Y+8609000D03*
D26*
X-6096000Y+8636000D03*
X-6096000Y+8382000D03*
D28*
X-5600000Y+7955000D03*
X-5600000Y+6939000D03*
D26*
X-9200000Y+8219000D03*
X-9200000Y+8473000D03*
X-9200000Y+8727000D03*
D28*
X-7800000Y+5300000D03*
X-6784000Y+5300000D03*
D24*
X-7100000Y+11100000D03*
X-7100000Y+10846000D03*
X-7100000Y+10592000D03*
D25*
X-1300000Y+600000D03*
X-1554000Y+600000D03*
X-1808000Y+600000D03*
X-2062000Y+600000D03*
X-2316000Y+600000D03*
X-2570000Y+600000D03*
D21*
X-12754000Y-52000D02*
X-754000Y-52000D01*
X-754000Y+11948000D01*
X-12754000Y+11948000D01*
X-12754000Y-52000D01*
M02*
